<?xml version="1.0" encoding="UTF-8" standalone="no"?>
<svg
   xmlns:dc="http://purl.org/dc/elements/1.1/"
   xmlns:cc="http://creativecommons.org/ns#"
   xmlns:rdf="http://www.w3.org/1999/02/22-rdf-syntax-ns#"
   xmlns:svg="http://www.w3.org/2000/svg"
   xmlns="http://www.w3.org/2000/svg"
   viewBox="0 0 56 56"
   id="svg2"
   version="1.1"
   width="56"
   height="56">
  <metadata
     id="metadata10">
    <rdf:RDF>
      <cc:Work
         rdf:about="">
        <dc:format>image/svg+xml</dc:format>
        <dc:type
           rdf:resource="http://purl.org/dc/dcmitype/StillImage" />
        <dc:title></dc:title>
      </cc:Work>
    </rdf:RDF>
  </metadata>
  <defs
     id="defs8" />
  <path
     d="m 6,16 c -3.3137,0 -6,2.6822 -6,6 0.07439,9.0983 2e-4,18.728 0,28 0,3.1932 2.4839,5.7776 5.625,5.9688 l 44.625,0.03125 c 3.1993,-0.1292 5.75,-2.7649 5.75,-6 l 0,-29.031 c -0.48549,-2.8287 -2.9413,-4.9688 -5.9062,-4.9688 -14.69,0.0067 -29.398,8e-5 -44.094,0 z m -0.09375,3.1562 44.375,0 -21.469,21.469 c -0.39174,0.39174 -1.0145,0.39174 -1.4062,0 l -21.5,-21.469 z m 47.094,1.5312 0,29.094 c 0,1.7334 -0.6245,2.7125 -1.875,3.0625 l -15.125,-15.156 17,-17 z m -49.656,0.125 16.719,16.719 -15.281,15.281 c -1.0462,-0.35303 -1.4104,-1.1953 -1.4375,-2.3438 l 0,-29.656 z m 18.844,18.812 5.2188,5.25 c 0.39174,0.39174 1.0145,0.39174 1.4062,0 l 5.0625,-5.0625 13.188,13.188 -38.25,0 13.375,-13.375 z"
     id="path4"
     style="fill:#ffffff" />
</svg>
