<?xml version="1.0" encoding="UTF-8" standalone="no"?>
<svg
   xmlns:dc="http://purl.org/dc/elements/1.1/"
   xmlns:cc="http://creativecommons.org/ns#"
   xmlns:rdf="http://www.w3.org/1999/02/22-rdf-syntax-ns#"
   xmlns:svg="http://www.w3.org/2000/svg"
   xmlns="http://www.w3.org/2000/svg"
   id="svg2"
   version="1.1"
   width="450"
   height="450"
   viewBox="0 0 450 450.00001">
  <metadata
     id="metadata8">
    <rdf:RDF>
      <cc:Work
         rdf:about="">
        <dc:format>image/svg+xml</dc:format>
        <dc:type
           rdf:resource="http://purl.org/dc/dcmitype/StillImage" />
        <dc:title></dc:title>
      </cc:Work>
    </rdf:RDF>
  </metadata>
  <defs
     id="defs6" />
  <path
     style="fill:#ffffff"
     d="m 372.8981,448.35044 c -8.13431,-4.20074 -7.98022,-3.52645 -8.28906,-36.27366 l -0.27198,-28.8392 c 9.15563,6.13725 19.63671,5.0166 27.70925,5.92305 l 0,25.24206 c 0,27.7163 -0.23441,29.03562 -5.87208,33.04999 -4.31608,3.07333 -8.51371,3.35718 -13.27613,0.89776 z"
     id="path4158" />
  <path
     style="fill:#ffffff"
     d="m 410.78099,449.39453 c -3.74316,-1.1625 -5.45982,-2.58305 -7.84016,-6.48778 -1.89819,-3.1138 -1.9887,-4.42182 -1.99204,-28.78801 l -0.004,-25.52601 c 10.34951,0.11656 18.12602,-3.25267 26.34482,-5.64098 l 0.62512,29.64248 c 0.57422,27.22878 -0.38249,29.0699 -2.14648,31.42094 -3.57311,4.76223 -9.79009,6.99362 -14.98775,5.37936 z"
     id="path4156" />
  <path
     style="fill:#ffffff"
     d="m 28.16356,447.83642 c -2.287419,-1.03837 -4.760238,-3.10809 -5.851086,-4.89729 -3.739612,-6.13369 -3.046229,-8.43244 11.686326,-38.74301 12.153004,-25.00344 13.582645,-28.45663 13.582645,-32.80786 0,-4.01988 -0.314103,-4.94525 -1.811529,-5.33683 -2.34878,-0.61421 -2.33571,-0.51734 -5.27108,-39.08761 -1.352724,-17.77453 -2.63079,-32.87836 -2.840168,-33.56407 -6.175432,3.61681 -11.275992,10.82754 -16.801114,16.46867 -6.096826,6.21131 -6.989566,6.79132 -10.452954,6.79132 C 2.0828434,317.86504 -1.5586394,309.0843 0.61874043,303.392 1.6648552,300.65859 22.46409,277.02226 33.117071,266.46075 c 20.172068,-19.9988 43.521848,-23.96092 69.967259,-11.8724 l 7.30254,3.33808 c 9.57812,-6.38563 18.85961,-14.58355 26.13345,-20.86322 3.8106,8.39109 11.93277,10.5148 18.25793,11.68411 -12.27596,12.32994 -21.78777,21.46273 -36.47337,29.4021 l -3.74694,42.80858 c -3.47933,39.75127 -3.88074,42.88254 -5.6204,43.84442 -1.03041,0.56973 -1.97174,1.06388 -2.09185,1.09813 -0.12011,0.0343 1.91672,15.20933 4.5263,33.72243 2.65081,18.8056 4.55197,35.44281 4.30799,37.69961 -1.27489,11.79291 -17.924851,15.55596 -24.490747,5.53514 -0.948574,-1.44771 -3.336932,-15.27815 -6.842216,-39.62174 -4.319768,-30.00001 -5.659673,-37.3977 -6.773672,-37.3977 -1.055897,0 -1.640609,2.13266 -2.439845,8.89897 -1.264227,10.70309 -2.218227,13.04766 -18.779547,46.15277 -12.32966,24.64629 -12.667853,25.19758 -16.534402,26.95287 -4.943009,2.24399 -6.700602,2.243 -11.655991,-0.007 z"
     id="path4154" />
  <path
     style="fill:#ffffff"
     d="m 186.36893,448.20036 c -7.91512,-3.45774 -12.9485,-7.66953 -12.93296,-16.00477 16.27835,-38.41613 35.14186,-75.37761 35.78491,-111.63032 21.71688,8.20902 29.40156,4.09768 40.18764,6.33523 0.52773,0.85387 -1.97573,14.82096 -4.79653,26.76024 -5.57228,23.58533 -29.23902,74.29334 -38.69931,86.94321 -4.71929,6.31043 -12.28888,10.76574 -19.54375,7.59641 z"
     id="path4152" />
  <path
     style="fill:#ffffff"
     d="m 294.29862,443.31252 c -6.68691,-4.98732 -8.98161,-19.82185 -18.64078,-68.57526 -4.95058,-24.98738 -9.21554,-46.32085 -9.47772,-47.4077 14.78015,-2.68709 29.32033,-6.38236 39.50393,-12.35482 0.75408,0.75408 20.69249,115.19229 20.67431,118.24002 -4.40083,17.12317 -18.7156,20.79801 -32.05974,10.09776 z"
     id="path4150" />
  <path
     style="fill:#ffffff"
     d="m 354.39907,369.94932 5.8955,-31.19205 c 3.24252,-17.15563 5.09951,-43.12588 5.36857,-44.67149 -25.02764,43.09774 -27.3665,-46.04672 -29.40995,-56.68171 11.28718,-0.69404 15.56305,-7.0203 19.13053,-12.8608 l 7.49201,32.57941 c 18.73583,-8.61248 29.93746,-18.37608 58.98754,-1.79936 8.72608,4.03123 11.78259,14.73627 16.35482,22.73478 4.34535,8.48022 16.16906,36.3387 10.06967,42.82685 -3.00167,2.58192 -9.31383,2.89227 -12.56137,0.6176 -4.89191,-5.61508 -6.70426,-11.82675 -10.42602,-18.04672 3.41133,23.52801 10.16743,41.52417 13.11428,66.56328 -24.88124,17.87312 -71.84475,10.11062 -84.01558,-0.0697 z"
     id="path4148" />
  <path
     style="fill:#ffffff"
     d="m 235.46417,318.50385 c -21.72552,-3.66027 -37.5999,-9.45545 -55.5163,-18.76482 l 11.56573,-57.79522 c 9.70235,-48.48373 11.5642,-59.15645 11.5563,-66.24419 l -0.009,-8.44897 -9.89363,18.73468 c -28.44513,53.864 -28.40562,53.80547 -36.80972,54.53722 -5.55283,0.4835 -10.13077,-1.92642 -13.03381,-6.86129 -3.96408,-6.7385 -3.27649,-8.67553 15.26097,-42.99226 9.1841,-17.00172 22.3545,-41.45048 29.26753,-54.33058 6.91305,-12.88009 13.20608,-24.12669 13.98453,-24.99245 1.60716,-1.78742 17.39658,-8.17729 26.5348,-10.73846 8.68201,-2.433307 34.3746,-2.438693 43.08977,-0.009 9.33797,2.60329 24.38606,9.23007 27.0874,11.92858 1.33085,1.32944 13.76572,23.67055 27.63306,49.64691 28.26082,52.9383 28.46763,53.46902 23.66461,60.72688 -4.33792,6.55502 -13.82598,8.39505 -19.65319,3.81137 -1.35187,-1.06338 -8.83444,-14.19915 -17.6588,-31.00029 l -15.31294,-29.15467 -0.26781,9.55793 c -0.25248,9.01044 0.38293,12.81026 11.09263,66.33629 10.89879,54.47106 11.29033,56.83265 9.63517,58.11411 -23.68389,14.00066 -57.14609,20.53829 -82.21693,17.9386 z"
     id="path4146" />
  <path
     style="fill:#ffffff"
     d="m 387.55249,239.23766 c -24.03209,-8.57245 -25.92158,-41.34871 -3.00857,-52.18853 14.08936,-6.66548 30.96467,-0.56713 37.54615,13.56832 3.13857,6.74087 3.16682,16.93728 0.0653,23.59743 -2.73253,5.86797 -10.39523,12.8943 -16.23042,14.88255 -5.2941,1.80388 -13.53237,1.86676 -18.37253,0.14024 z"
     id="path4144" />
  <path
     style="fill:#ffffff"
     d="m 70.063065,239.02724 c -8.789384,-2.89222 -16.536281,-10.04476 -19.132698,-17.66484 -3.622328,-10.63095 -1.103997,-21.36797 6.885741,-29.35771 8.069372,-8.06939 18.7143,-10.50811 29.643854,-6.79132 6.278207,2.135 14.494128,10.35092 16.629128,16.62912 6.264,18.4199 -5.993789,36.79077 -25.12705,37.65811 -3.606432,0.16348 -7.610968,-0.0496 -8.898975,-0.47336 z"
     id="path4142" />
  <path
     style="fill:#ffffff"
     d="m 241.24741,90.886111 c -26.48122,-6.68957 -36.56235,-39.516851 -18.27892,-59.52184 17.10313,-18.713547 47.89169,-14.818144 58.79634,7.438975 5.52089,11.268524 5.5862,22.197406 0.19841,33.200713 -3.30262,6.744835 -11.71559,14.421499 -18.66636,17.032655 -6.09951,2.291376 -16.76037,3.185595 -22.04947,1.849497 z"
     id="path4138" />
</svg>
