<?xml version="1.0" encoding="UTF-8" standalone="no"?>
<svg
   xmlns:dc="http://purl.org/dc/elements/1.1/"
   xmlns:cc="http://creativecommons.org/ns#"
   xmlns:rdf="http://www.w3.org/1999/02/22-rdf-syntax-ns#"
   xmlns:svg="http://www.w3.org/2000/svg"
   xmlns="http://www.w3.org/2000/svg"
   id="svg2"
   version="1.1"
   width="400"
   height="400"
   viewBox="0 0 400 400">
  <metadata
     id="metadata8">
    <rdf:RDF>
      <cc:Work
         rdf:about="">
        <dc:format>image/svg+xml</dc:format>
        <dc:type
           rdf:resource="http://purl.org/dc/dcmitype/StillImage" />
        <dc:title></dc:title>
      </cc:Work>
    </rdf:RDF>
  </metadata>
  <defs
     id="defs6" />
  <path
     style="fill:#ffffff"
     d="m 344.55727,395.89765 c 6.95951,-3.70514 9.65348,-12.89994 6.02409,-20.56082 -0.5503,-1.16156 -8.27536,-11.99568 -17.16682,-24.07584 l -16.1663,-21.96391 7.91745,-0.24124 c 4.3546,-0.13268 11.33018,-0.13268 15.50131,0 6.2946,0.51696 11.23567,-0.4761 1.71811,1.39345 -3.22615,0.63371 -6.28347,1.3957 -6.79404,1.6933 -0.59578,0.34727 2.50852,5.21267 8.66601,13.58236 l 9.59431,13.04125 15.18796,3.25094 c 17.44809,3.73471 21.1246,3.76852 25.41521,0.23368 7.9434,-6.54421 7.23926,-19.23975 -1.38116,-24.90221 -1.28727,-0.84557 -9.93956,-3.14893 -19.50896,-5.19356 -16.76765,-3.58265 -17.11186,-3.69737 -13.82477,-4.60778 6.93431,-1.92056 10.97588,-5.26826 14.20528,-11.76645 1.65158,-3.32329 1.6793,-4.05533 1.6793,-44.35022 0,-45.5051 0.24239,-43.26014 -5.36672,-49.70403 -5.12031,-5.88235 -7.12901,-6.46242 -22.39774,-6.46795 -13.0226,-0.005 -13.87048,0.0964 -17.47415,2.0846 -4.25608,2.34812 -7.98856,6.52317 -9.63369,10.77602 -4.68133,13.87265 -0.0422,6.58915 -5.32675,33.82408 -0.71842,0.86492 -4.65652,0.7424 -20.36353,-0.63357 -23.54012,-2.06217 -28.64732,-2.12616 -31.74181,-0.39771 -5.53188,3.08986 -7.35872,12.94481 -3.35285,18.08698 1.12661,1.44621 2.99624,3.15888 4.15472,3.80596 1.38731,0.77489 11.49428,1.97473 29.60777,3.51485 25.61756,2.17817 27.68205,2.24533 30.13787,0.98039 2.68037,20.33066 -14.81875,11.67949 -39.84671,11.58528 l -3.34394,2.38449 c -6.35451,4.53129 -8.17671,14.2714 -3.92133,20.9607 1.03883,1.63301 13.28721,18.45039 27.21863,37.37195 19.37617,26.3166 26.03264,34.79012 28.31988,36.05048 3.6161,1.99263 8.78623,2.09572 12.26337,0.24453 z m -132.5577,-67.02334 c 0.1236,0 14.46531,3.00133 31.87047,6.66962 17.40516,3.66829 31.73941,6.5766 31.85389,6.46291 0.11447,-0.11369 -2.44196,-3.78027 -5.68096,-8.14795 -7.12923,-9.61355 -9.11526,-13.80534 -9.71307,-20.50067 l -0.45606,-5.10786 -62.79378,-13.23359 c -34.53659,-7.27847 -62.92813,-13.37869 -63.09232,-13.55604 -0.1642,-0.17736 -1.8796,-5.3082 -3.812,-11.40187 -6.36115,-20.05933 -7.35808,-21.2557 -19.81922,-23.78369 -4.65649,-0.94466 -15.259862,-2.96735 -23.563042,-4.49487 -1.874308,-4.93125 -4.241325,-16.56966 0.418294,-17.3357 12.755435,-2.09697 49.816348,-4.20754 53.392218,-6.31013 3.57653,-0.60171 4.79585,-1.29153 7.23439,-4.09283 2.59617,-2.98236 2.93287,-3.86264 2.93287,-7.66765 0,-8.25557 -4.07679,-12.65433 -11.73146,-12.65798 -2.36584,-8.5e-4 -15.19338,1.14721 -28.50563,2.55187 -23.157473,2.44349 -24.260264,2.4891 -25.502898,1.05485 -4.177646,-11.23138 -1.152944,-26.11155 -6.785844,-36.45994 -1.30769,-2.28462 -3.763121,-4.89467 -6.030599,-6.41033 -3.824163,-2.55621 -3.827052,-2.55667 -17.576515,-2.83122 -8.722311,-0.17416 -14.842143,0.0757 -16.733219,0.68322 -3.716202,1.19384 -8.71535,5.99148 -10.957376,10.5157 -1.682225,3.39462 -1.703083,3.93827 -1.703083,44.40784 0,45.32586 -0.170017,43.67147 5.162264,50.23125 2.058256,2.53206 2.289038,3.11996 1.075464,2.73968 -4.185385,-1.31153 -14.972702,-3.27053 -18.009315,-3.27053 -4.2340936,0 -8.732304,2.60167 -11.1861889,6.46983 -5.0172683,7.90895 -1.39157468,19.30156 7.1004447,22.31083 3.3559432,1.18922 54.6343152,12.03002 55.4506132,11.72285 0.345416,-0.12998 -1.325016,-3.65763 -3.712071,-7.83922 -2.387056,-4.18159 -5.064626,-8.9334 -5.950144,-10.55958 -0.921403,-1.69205 4.124967,3.1818 11.798374,11.39503 l 13.408423,14.3517 0,34.04481 c 0,32.24778 0.0816,34.21763 1.546488,37.31907 3.490969,7.39119 12.299801,10.15361 19.361222,6.07162 0.94025,-0.54352 2.69169,-2.37869 3.89209,-4.07814 l 2.18256,-3.08993 0.23202,-38.92585 c 0.12762,-21.40921 0.008,-40.25471 -0.26701,-41.87889 -7.13366,-13.66164 -43.61512,-46.44012 -12.491954,-25.34661 23.623134,16.01648 23.122084,15.37192 23.698384,30.48605 0.21102,5.5345 0.68501,10.06272 1.05331,10.06272 0.71621,0 64.00824,13.31229 66.96261,14.08433 -0.65633,18.78578 0.74878,53.30424 0.15979,71.79449 9.98124,8.43702 21.21983,3.62954 24.11684,-0.23232 2.00548,-22.70508 -1.06622,-43.09656 1.17073,-66.21688 z M 339.78528,204.32282 c 15.00708,-5.06844 22.38106,-24.00213 15.22263,-39.08616 -5.64079,-11.88612 -19.94052,-17.68671 -31.74463,-12.87701 -18.55504,7.56045 -22.08464,34.9411 -6.14165,47.64349 6.51607,5.19159 15.18802,6.84446 22.66365,4.31968 z M 77.757346,139.628 c 5.704806,-2.44115 10.726399,-7.5426 13.573522,-13.78934 5.335974,-11.70739 2.10046,-26.160429 -7.583616,-33.876107 -14.976849,-11.932616 -35.911731,-3.437818 -40.128364,16.282987 -2.534214,11.85231 3.15439,24.46194 13.691732,30.34973 5.428238,3.03306 14.680082,3.50035 20.446726,1.03273 z"
     id="path4138" />
</svg>
