<?xml version="1.0" encoding="UTF-8" standalone="no"?>
<svg
   xmlns:dc="http://purl.org/dc/elements/1.1/"
   xmlns:cc="http://creativecommons.org/ns#"
   xmlns:rdf="http://www.w3.org/1999/02/22-rdf-syntax-ns#"
   xmlns:svg="http://www.w3.org/2000/svg"
   xmlns="http://www.w3.org/2000/svg"
   version="1.1"
   id="svg5086"
   viewBox="0 0 250 250"
   height="250"
   width="250">
  <defs
     id="defs5088" />
  <metadata
     id="metadata5091">
    <rdf:RDF>
      <cc:Work
         rdf:about="">
        <dc:format>image/svg+xml</dc:format>
        <dc:type
           rdf:resource="http://purl.org/dc/dcmitype/StillImage" />
        <dc:title></dc:title>
      </cc:Work>
    </rdf:RDF>
  </metadata>
  <g
     transform="translate(0,-802.36216)"
     id="layer1">
    <g
       transform="matrix(0.03377381,0,0,-0.03377381,-484.84013,1440.6649)"
       id="g182">
      <path
         id="path184"
         style="fill:#fcefde;fill-opacity:1;fill-rule:nonzero;stroke:none"
         d="m 16169.1,15116.7 c 36,9.7 63.7,19.7 88,33.6 1.8,4.8 3.1,9.5 6,15.5 8.1,18.5 19.4,44 25.8,76.3 0.7,3 2.1,5.8 2.6,11 8.5,46.4 0.9,112 -28.2,167.2 -20.5,55.8 -86.7,59.3 -133.3,58.5 -6.5,-0.6 -10.5,-0.9 -14.5,-1.2 -33.4,-3.2 -60.3,-9.8 -79.8,-15.1 -7.5,-3.4 -14.8,-5.2 -20.7,-6.4 -1.7,-5.3 -3.5,-10.9 -6.4,-18.1 -8.3,-17.7 -15.3,-45.1 -21.8,-78.2 -0.6,-3.9 -2,-7.8 -2.8,-14.4 -1.8,-23.6 -4.4,-54.9 -3.8,-86.4 1.3,-31.8 4.8,-63.2 8.8,-86.6 1.5,-4.9 2.5,-8 3.3,-11 8.9,-32 20,-57.4 30.4,-73.8 2.2,-4.2 3.7,-6.8 5.5,-10.4 4.3,1.3 8.6,2.6 12.9,3.7 42.5,11.9 85.2,23.8 128,35.8" />
    </g>
    <g
       transform="matrix(0.03399903,0,0,-0.03399903,-484.84013,1440.6649)"
       id="g186">
      <path
         id="path188"
         style="fill:#fcd89d;fill-opacity:1;fill-rule:nonzero;stroke:none"
         d="m 15746.3,13923.6 c 9.6,-6.1 18.5,-15.8 28.1,-28.1 10.8,-11.6 20.9,-26.3 27.9,-44.2 1.9,-4.3 3.8,-8.6 6.8,-15.5 8.4,-15.9 12.8,-39.2 16,-62.3 1,-23.4 0.3,-47.1 -4.7,-64.1 -1,-5.7 -1.5,-9.2 -2,-12.7 -6.7,-36.8 -18.2,-65.7 -27.2,-85.3 -9.1,-19.6 -11.8,-31.1 -11.8,-31.1 0,0 2.9,11.8 3.4,32.9 0,21.3 0.3,51.3 -2.6,86.1 -0.1,3.2 -0.2,6.5 -0.4,12 -0.9,16.1 -6.8,36.7 -6.6,57.5 -3.1,20 -4.1,40.5 -5,55.9 -1.4,6.4 -2.2,10.4 -3.1,14.3 -2.3,16.9 -6.2,31.8 -11.4,44.8 -3.9,13.7 -8,25.9 -14.2,34.1 -10.6,17.8 -18.7,27.1 -18.7,27.1 0,0 8.1,-8.3 25.5,-21.4 z m -591.4,-579.3 c 11.2,-0.7 18,-1.1 24.8,-1.5 3.7,-0.4 7.1,-0.8 10.7,-1.1 34.4,4.5 73.8,9.7 116,12.8 26.5,-1 91.9,13.2 143.8,22.2 55.9,7.5 112.9,28.9 173,43.1 118.4,36.8 238.8,88.7 348.5,159.1 l 80.1,56 0.2,0.2 c -5.6,2.1 -13.5,5.7 -24.4,13.2 -10.4,6 -18.7,16.8 -27.8,29.8 -10.3,12.5 -18,28.4 -24.8,46.6 -1.3,3.4 -2.6,6.8 -4.7,12.5 -6.5,13.5 -11.6,32.4 -15.2,51.7 -2.2,18.9 -3.6,37.9 -2.2,52.2 0.1,7.1 0.1,11.6 0.1,16 -0.6,36.9 5.1,66.8 8.8,87.8 3.8,20.8 13.1,32.7 13.1,32.7 0,0 0.7,-1.3 0.8,-1.4 -1.4,6.5 -2.1,16.2 2.5,28.6 7.4,23.4 29.5,50 62.1,71.6 4,2.5 8,5 14.4,9.1 33.2,22.4 94.7,38.9 152.7,18.5 63.2,-22.6 86.4,-89.3 91.2,-127.1 0.8,-2.8 0.8,-4.2 1.2,-6.3 0.2,52.1 -12,101.8 -27.2,131.4 -24.4,56.8 -61.1,87.6 -95,108.1 -5,3.3 -9.3,6.1 -13.9,9.1 -22,-7.5 -44,-14.4 -65.1,-20.7 -36.4,-12.6 -72.9,-21.7 -108.9,-36.4 -71.9,-27.8 -143.2,-61.1 -217.3,-86.9 -72,-29.5 -151.9,-39.9 -222.7,-53.1 -35.1,-2.9 -69.1,-5.7 -102,-8.4 -16.5,-1.2 -32.9,-2.4 -48.8,-3.6 -10.3,-0.5 -20.4,-0.9 -30.2,-1.4 -37.2,0.3 -70.1,-3.4 -101.1,2.5 -1.2,0.2 -2.1,0.5 -3.3,0.7 -0.6,-0.1 -1.1,-0.2 -1.8,-0.3 -42.8,-5.4 -100,-2.9 -171.1,-1.2 -46.9,1.3 -97.8,2.7 -151.6,4.2 -57,0.4 -118.5,7.3 -181.3,15.7 -35.9,5.6 -73.5,12.2 -111.5,21 -7.6,-9.7 -20,-17.5 -31.9,-32.1 -29.5,-24.2 -57.9,-69.9 -81.5,-127.8 -3.1,-6.8 -6.2,-13.8 -9.2,-26.1 -19.3,-62.6 -25.8,-143 -9.4,-224.2 16.4,-80.4 60,-161.5 128.6,-204 72.1,-39.1 170.5,-61.3 259.3,-71.6 90.5,-11.1 176.9,-16.5 252,-21.2" />
    </g>
    <g
       transform="matrix(0.03396206,0,0,-0.03396206,-484.84013,1440.6649)"
       id="g190">
      <path
         id="path192"
         style="fill:#fcefde;fill-opacity:1;fill-rule:nonzero;stroke:none"
         d="m 16195.9,14351.6 c 21.4,9.1 40.8,20.1 59.2,31.9 1.4,3.3 2.2,5.9 4.1,9.5 8,18.2 19.4,43.2 26.6,75.8 0.8,2.9 1.8,6 3.2,10.8 11,50.9 9.5,129.8 -27.4,181.1 -35.1,54.2 -112.3,48.4 -163.7,40.4 -6.6,-1.1 -10.7,-1.8 -14.8,-2.5 -34,-7.4 -63.7,-11.9 -84.9,-14.3 -16,-1.9 -25.5,0.3 -30.4,1.7 2,-5.8 4.1,-13.3 4.5,-24.8 -2.8,-21.8 -8,-53.1 -17.1,-85.4 -0.4,-3.7 -0.8,-7.4 -1.4,-13.3 -2.8,-17.9 0.5,-47.2 4.3,-76.3 4.3,-29.4 8.5,-58.5 12.9,-80.1 1.5,-5 2.5,-8.1 3.5,-11.1 8.2,-33.3 21,-56.7 28.9,-75.4 8.6,-14.2 13.1,-25.5 14.1,-28.1 23.4,7.7 47.2,15.1 70.5,23.1 38,11.5 73.3,22.5 107.9,37" />
    </g>
    <g
       transform="matrix(0.03395029,0,0,-0.03395029,-484.84013,1440.6649)"
       id="g194">
      <path
         id="path196"
         style="fill:#fcefde;fill-opacity:1;fill-rule:nonzero;stroke:none"
         d="m 16278.3,13848.1 c 8.7,10.3 15.8,21.7 21.7,33.6 -1.3,4.1 -2.5,7 -3.6,12.1 -4.2,22.6 -9.1,49.4 -15,82.5 -0.5,3.1 -1,6.3 -2.7,11.1 -8.7,34.4 -30.2,75.5 -66.5,88.1 -37.8,12.6 -81.3,4.6 -113.2,-10.7 -5.7,-3 -9.2,-4.9 -12.6,-6.8 -28.1,-16 -51.8,-31.2 -62.8,-45.8 -11,-11.9 -18.7,-20.8 -21,-22.8 2.7,-5.6 5.9,-13.8 7.7,-24.8 3.9,-21 7.6,-50.9 10.5,-85.7 0.2,-4.2 0.5,-8.5 1,-15.3 3.8,-12.9 5.9,-30.1 7.8,-47.3 4.2,-16.6 4.3,-34.3 6.3,-47.1 1.5,-4.9 2.5,-7.9 3.5,-10.8 4,-16.3 8.6,-30.8 14.9,-42.5 5.3,-12.4 9.4,-23.9 15.2,-32 5.9,-10.8 8.9,-19.1 10.9,-24.9 l 69,57.8 c 48.5,42.7 99.1,87 128.9,131.3" />
    </g>
    <g
       transform="matrix(0.03410492,0,0,-0.03410492,-484.84013,1440.6649)"
       id="g198">
      <path
         id="path200"
         style="fill:#fcd89d;fill-opacity:1;fill-rule:nonzero;stroke:none"
         d="m 15601.8,14461.3 c -3.5,33.9 -4.7,64.4 -11.1,84.2 -5,20.4 -9.6,31.6 -9.6,31.6 0,0 5.1,-10.7 16.8,-28.6 12.6,-17.3 27.5,-44.8 39.8,-80.4 1,-4.4 2.1,-8.8 4,-15.9 8.9,-23.9 11.6,-57.4 11.4,-90.7 -1.6,-33.7 -9.1,-66.6 -18,-90 -1.5,-5.5 -2.5,-8.9 -3.4,-12.2 -12.7,-34.8 -25.9,-62.4 -36.6,-80.9 -10.2,-18.6 -14,-29.9 -14,-29.9 0,0 3.8,11.4 6.7,32.3 3.5,20.8 5.4,51 9.1,85.8 0.2,3.3 0.5,6.7 0.8,12 1.6,23.7 1,54.6 3.5,85 -0.1,29.9 1.4,59.8 1,82.7 -0.1,6.7 -0.2,10.9 -0.4,15 z m -701,-396.8 c 52.7,-3.8 102.5,-7.4 148.5,-10.6 36.1,-4.8 69.5,-10.7 98.9,-17 0.6,0 1,0.2 1.6,0.3 23.2,2.4 45.1,3.3 72.4,3 26.8,0.2 59.6,8.5 93.8,12 53.8,6 112.3,12.5 173.9,19.4 64.4,14.8 130.9,23.7 198.9,53.2 68.1,25.2 138.1,59.4 213.8,89.7 14.4,6 29.7,11 44.9,16.1 -4.1,0.7 -13.6,3 -29.9,13 -17.3,14.6 -38.3,41.4 -51.2,77 -1.2,3.4 -2.5,6.8 -4.5,12.3 -9.1,22.7 -18.5,53.9 -22.1,85.8 -3.9,31.1 -7.4,63 2,89.9 1.5,8 2.5,12.9 3.4,17.7 12.7,35.9 25.8,61.5 35.4,79.7 5.1,16 15.5,29.5 15.5,29.5 0,0 1.7,-3.1 3.2,-6.2 3.3,3.7 10.2,10.8 24.5,18 18.9,9.5 46,23 81.6,33.3 4.1,1.4 8.7,2.1 15.8,3.8 28.6,6.5 63.5,14.9 103.8,8.6 19.9,0.2 40.4,-10.6 60.4,-18 17.2,-13.5 38.6,-24 49.5,-44.2 53.1,-75.7 44.4,-164.5 28.9,-222.2 -2,-5.7 -3.2,-9.2 -4.4,-12.6 -1.8,-5.3 -4.5,-8.9 -6.5,-13.8 8.8,11.8 16.5,24.4 22.4,37.9 24.2,56.8 24.7,133.7 8.7,195.3 -16,63.3 -50.5,116.6 -97,145.9 -21.4,16.8 -54.8,23.7 -80.2,36.3 -12.1,6.8 -30.2,8.7 -39.4,10.5 l -24.4,5.1 c -31.8,8.8 -61.5,10.4 -88.6,12.1 -25.5,3.4 -48,5.3 -66.8,2.9 -75.9,-20.6 -149.6,-41.4 -224.6,-58.9 -84.7,-19.6 -172.4,-27 -253.1,-21.7 -69,5.5 -134.2,10.5 -194.5,15.3 -51.3,6.1 -96,12.7 -132.5,20.4 -32.2,-2.9 -69.1,-4.5 -110.3,-4.5 -11.4,0 -22.9,1 -34.3,1 -31.1,1.1 -63.4,4.2 -95.6,6.3 -64.4,7.2 -131.9,15.5 -200.5,34.3 -2.2,0.6 -4.5,1.4 -6.8,2.1 -6,-1.4 -11.9,-2.8 -18.7,-3.9 -39,-5.3 -90.1,-22.8 -140.9,-55.8 -20.1,-14.4 -63.3,-51 -88,-91.7 -27.2,-41.5 -48.1,-91.8 -59.4,-146.1 -22.2,-107.9 -7.9,-236 73.9,-310.3 82.4,-76.8 209.4,-109.4 325.6,-129.6 59.4,-9.5 116.5,-18 172.9,-20.6" />
    </g>
    <g
       transform="matrix(0.03409857,0,0,-0.03409857,-484.84013,1440.6649)"
       id="g202">
      <path
         id="path204"
         style="fill:#fcd89d;fill-opacity:1;fill-rule:nonzero;stroke:none"
         d="m 16300,15114.3 c -17,-69.7 -52.5,-138.3 -116.5,-181.3 -20.7,-16.2 -43.8,-28 -66.6,-37.1 7,-1.5 14.2,-3.1 20.3,-5.9 33.7,-14.3 68.9,-19.8 104.1,-43.5 20.3,-12.1 38.4,-27.4 55,-44.3 -7.4,79.1 -9.1,157.5 -4.6,232.9 3.2,26.9 5.6,53 8.3,79.2" />
    </g>
    <g
       transform="matrix(0.04484538,0,0,-0.04484538,-484.84013,1440.6649)"
       id="g206">
      <path
         id="path208"
         style="fill:#fcd89d;fill-opacity:1;fill-rule:nonzero;stroke:none"
         d="m 13733.6,11008.6 c -3.2,-39.3 -7,-78.5 -17.4,-116.2 -9.1,-37.9 -15.9,-75.5 -31.6,-109.6 -14.9,-33.9 -24,-68.8 -44.2,-96.9 -8.7,-14.5 -17.3,-28.5 -25.6,-42.1 l -12.4,-19.8 c -2.9,-5.1 -4.9,-6 -7.4,-9.1 -18.6,-20 -34,-36.5 -45.3,-48.6 -9.9,-11.3 -16.4,-18.7 -16.4,-18.7 0,0 5.8,8 14.7,20.2 9.2,13.3 21.8,31.7 37,53.9 2,3.4 3.8,4.2 6,9.7 l 9.5,21 c 6.5,13.9 13.3,28.4 20.3,43.3 16,28.6 22.7,63.3 34.1,97 12.6,33.3 16.9,70.4 24.3,107.1 8.8,36.4 11.8,74.5 15.1,112.5 4.6,37.9 7.4,75.9 6.4,113.7 -0.7,37.6 3.7,74.8 -0.1,110.7 -1.9,36.1 -3.7,70.9 -5.5,103.9 0,16.7 -3.2,32.6 -4.7,48.1 -1.2,10.9 -2.4,21.4 -3.5,31.6 -2.9,26.9 -5.3,49.5 -7,65.4 -2,14.6 -3.4,24.8 -3.4,24.8 0,0 2.3,-10 5.6,-24.3 4.2,-15.6 10,-37.6 16.9,-63.8 2.6,-9.9 5.3,-20.3 8,-31 3.8,-15.4 8.3,-31.2 10.3,-47.8 4.7,-33.3 9.7,-68.4 14.9,-104.7 6.4,-36.3 4.2,-74.6 6.1,-113.1 2.3,-38.8 0,-78 -4.7,-117.2 z m -6.1,-840.8 c -9.5,-57.2 -36.8,-108.7 -61.3,-142.7 -2.4,-3.6 -3.9,-5.9 -5.6,-7.9 -17.2,-22.16 -33.8,-38.31 -45.3,-49.47 -12,-10.79 -17.8,-17.66 -17.8,-17.66 0,0 5.9,6.95 14.6,20.24 8.7,13.37 19,33.69 30.4,57.79 1,2.3 2.1,4.7 3.7,8.4 16.7,36.7 32.9,87.2 42.4,137.9 8.6,50.3 6.8,101.3 -2.7,138.8 -1.1,5 -1.7,8.2 -2.9,11 -8,24.7 -16.9,45.7 -26.1,58.6 -9,13 -15,19.9 -15,19.9 0,0 6.1,-6.6 18.3,-17.2 11.4,-11.1 28.4,-27.8 42.7,-52.8 1.9,-2.8 3.5,-5.9 5.7,-11.1 19.6,-38.1 29.3,-97.6 18.9,-153.8 z m -1155.3,-362.02 c -5.7,15.36 -13.6,36.44 -23.1,61.88 -3.6,10.08 -7.5,20.61 -11.5,31.48 -5.3,13.95 -7.6,29.03 -11.7,44.22 -7.2,30.65 -14.8,62.94 -22.7,96.34 -12.4,67.2 -23.7,139.6 -33,211.3 -10.4,71.5 -15.6,145.1 -20.8,213.3 -2.6,34.2 -4.7,67.2 -3,98.7 0.8,27.1 1.6,52.8 2.3,76.5 1.1,27 2.1,49.7 2.8,65.9 0.2,14.6 0.4,24.9 0.4,24.9 0,0 0.9,-10.3 2.1,-24.9 1.8,-16 4.4,-38.6 7.5,-65.5 2.4,-23.4 5,-48.8 7.7,-75.6 2.2,-31 6.3,-63.5 11.9,-97.1 9,-67.3 18.6,-139.1 28.2,-210.8 9.8,-72.4 18.1,-144.1 25.1,-211.8 4.6,-33.5 9.1,-65.92 13.3,-96.7 2.4,-15.32 3,-30.73 6.8,-44.76 2.4,-11.12 4.6,-21.86 6.8,-32.19 5.4,-26.49 9.9,-48.39 13.2,-64.42 3.1,-15.62 5.8,-24.32 5.8,-24.32 0,0 -2.5,8.74 -8.1,23.57 z m -540.4,300.42 c 2.9,-4.3 9.4,-9.7 15.1,-17.3 13,-14.2 21.5,-38.4 26.5,-63 0.8,-12.7 0.2,-25.6 -1.4,-37.27 -0.6,-11.78 -6.4,-22.32 -10.4,-30.94 -4.4,-8.66 -9.1,-15.16 -11.4,-19.91 -2.8,-4.58 -3.3,-7.45 -3.3,-7.45 0,0 0.6,2.87 -0.3,8.41 -1.3,7.62 -2.4,13.95 -3.8,21.91 -1.4,8.7 -0.8,18.19 -4.3,28.56 -2.5,10.25 -4.1,20.79 -4.3,31.59 -5.2,21 -3.6,43.8 -5.6,61.6 -0.7,8.8 0.5,17.1 -0.2,22.4 -0.2,5.5 -1.2,8.2 -1.2,8.2 0,0 1.1,-2.6 4.6,-6.8 z m 119.2,23.8 c 1,5.8 2.6,9.3 4.1,13.2 -0.8,3.2 -2.2,10.7 1.1,24.7 5.8,16 17.7,39.7 43.4,57.4 3.1,2 6.3,4 11.5,7.3 9.6,7.6 24.3,9.6 38,14 15.4,-0.2 32.3,1.3 47.7,-8.1 17.8,-5.5 26.2,-21.2 38.3,-33.4 6.7,-14.4 15.1,-28.7 19.8,-44.2 17.4,-67.5 -20.3,-130.4 -54.4,-160.2 -3.4,-2.99 -5.5,-4.91 -7.6,-6.74 -10.8,-10.37 -23.4,-15.99 -34.1,-21.11 -10.5,-5.71 -20.5,-8.71 -29.4,-9 -7.5,-0.75 -12.8,-0.41 -17.2,-0.08 0.1,-1.33 0.2,-3.83 0.2,-3.83 0,0 -2.4,1.41 -6.2,4.33 -1.3,0.29 -3.7,0.62 -3.7,0.62 0,0 1.2,1.17 1.5,1.46 -3.4,2.79 -7.2,5.96 -11.8,11.08 -38,37.27 -44.4,111.17 -45.1,122.67 0.9,11.7 2.6,21.7 3.9,29.9 z m -287.1,1255.5 c 5,15.2 10.4,37.4 14.5,63.1 0.5,2.4 0.9,4.9 1.7,8.8 2.3,12.5 0.9,29.3 4.2,45.3 0.1,15.8 3,32 3.4,44.1 -0.1,4.9 -0.2,8 -0.3,11.1 0.5,13 -1.4,24.5 -2.9,35.1 -0.9,11 -2.9,20.4 -6,27.6 -5,15 -9.3,23.2 -9.3,23.2 0,0 4.6,-7.6 15.2,-20.1 5.9,-6.1 11.7,-14.2 16.8,-24.7 6,-10.2 12.4,-22.2 15.3,-36.5 0.8,-3.4 1.6,-6.9 3,-12.4 5.2,-13.6 4.6,-32.6 4.1,-51.2 -2.7,-18.6 -7,-37.1 -14,-49.5 -1.7,-4.1 -2.7,-6.7 -3.6,-9.2 -11.8,-26.1 -25.3,-45.7 -36.5,-57.7 -10.7,-12.3 -15.1,-20.2 -15.1,-20.2 0,0 4.5,8 9.5,23.2 z m 4292,-107.9 c -54.2,-4.1 -110.8,-8.3 -169.2,-12.8 -93.2,-7 -189.5,-14.7 -288.9,-15.2 -198.6,-4.7 -408.1,-9.6 -624.8,-14.7 -216,-8 -442.3,-5.8 -670.9,27.9 -114.1,17.2 -228.9,42.5 -340.2,83.8 -110.8,41.2 -219,100.6 -306.9,186.6 -89.2,85.8 -146.1,197.8 -186.1,307.7 -40.4,110.3 -68.8,220.2 -117.3,317.1 -12.3,24 -26.7,46.3 -39.7,69.6 -14.6,23.1 -31.9,46 -47.6,68.9 -32.2,46.1 -64.2,92 -96.1,137.6 -64.1,91.3 -124.8,185 -178.7,280.7 -25.1,49.3 -51.7,97 -74.6,146.6 -22.4,50.1 -39.6,102.1 -54.1,154.1 -27.2,104.6 -37.3,211.4 -31.4,313.6 4.7,102.1 25.9,199.8 38.7,288.8 2.9,22.1 4.6,43.5 4.3,63.1 -0.8,9.4 -1.5,18.7 -3.6,26.6 -0.3,4 -2.9,8.2 -3.3,10 l -0.5,1.7 c -1,4.8 -4.1,7.6 -5.6,11.7 -11,17 -33.1,28.2 -55.1,36.5 -19.5,2.2 -41.4,-0.8 -65.5,-3.1 -6.3,-0.9 -11.8,-0.9 -18.2,-2.4 -15.8,-4 -31.6,-7.9 -47.4,-11.9 -34.7,-12.6 -69.5,-28.4 -103.5,-50.6 -33.9,-21.3 -67.1,-46.6 -101.1,-75 -32.4,-28.4 -61.6,-55.3 -85.3,-92.4 -95.6,-144.6 -147,-343 -147,-530.2 1.7,-66.7 13.1,-132.5 31.1,-196.6 1.6,-0.6 4.7,-1.7 10.3,-3.3 9.4,-2.7 19.2,-5.4 31.5,-8.9 1.2,-0.4 2.4,-0.7 4.4,-1.4 13,-1.4 28.3,-3 44.5,-4.8 16,-3.5 33.3,-1.3 50.7,-0.2 17.1,1.4 34.4,0.6 50.4,2.6 15.9,3.1 30.8,6 43.7,8.4 2.6,0.5 4.3,0.7 5.8,1 12.6,1.9 23.9,3.6 32.7,4.9 8,1.2 12.4,2.3 12.4,2.3 0,0 -4.4,-1.2 -11.8,-4.1 -8.3,-3.3 -19,-7.6 -30.8,-12.3 -1.5,-0.6 -3.1,-1.2 -5.6,-2.1 -12.8,-4.5 -27.6,-9.7 -43.5,-15.2 -16.3,-3.8 -34.7,-3.8 -52.7,-5.2 -18.3,-1.3 -36.7,-2.5 -53.5,3.1 -16.9,4.1 -32.6,7.4 -45.3,11.9 -2,1 -3.2,1.6 -4.3,2.2 -11.5,6.3 -20.6,11.3 -29.3,16.1 -5.1,2.8 -7.9,4.2 -9.5,4.9 7.5,-27 15.9,-53.7 25.7,-79.8 31.6,-89.3 76.6,-170.7 116.1,-258.4 38,-86.9 69.5,-175.4 82.2,-265.4 6.3,-45 7.9,-90.1 0.8,-134.3 -4,-19 -7.9,-38.8 -15,-57.7 -0.8,-2.4 -1.6,-4 -2.4,-6.3 -6.3,-14.3 -7.1,-16.7 -11.8,-24.5 -15.8,-27.7 -33.2,-46.7 -48.3,-63.2 -4.7,-5.6 -9.4,-10.3 -14.1,-15.1 -10.3,-11 -19.8,-19.7 -30.1,-26.8 -28.4,-20.6 -45.8,-25.3 -45.8,-25.3 0,0 3.1,14.2 11,33.2 -48.9,-13.4 -99.5,-22.9 -151.6,-29.2 -55.3,-8 -110.6,-6.4 -167.5,-9.5 -226,-9.5 -464.6,7.1 -700.8,5.5 -58.5,-1.6 -119.4,0 -175.4,-4.8 -54.5,-3.1 -105.9,-20.5 -148.5,-47.3 -87.7,-53.8 -124.9,-163.6 -109.9,-262.3 6.3,-49 25.3,-97.2 53.8,-130.4 26.8,-30.8 72.6,-51.4 118.5,-64 46.6,-13.4 94,-20.6 140.6,-26.1 23.7,-2.4 46.6,-4 69.5,-6.3 8.7,-0.8 16.6,-1.6 25.3,-1.6 39.8,-4.7 75.1,-8.6 103.5,-13.6 24.3,1.2 51.8,1.5 82.5,1.2 45.6,-2 95.1,-4.2 147.3,-6.5 55.3,-1.9 111.8,4.1 171.1,19 50.9,12.9 104.9,28.9 159,44.2 -15.3,9.7 -29.9,30.9 -40.5,58 -1,2.6 -1.9,5.2 -3.4,9.5 -6.8,19.3 -13.5,46.2 -13.8,73.3 -0.6,26.7 2.3,53.5 8.2,72.8 0.9,5.6 2.3,8.9 3.1,12.3 7.6,28 21,49.6 33.4,61.8 6.3,6.7 12.5,10 17.2,11.7 2.3,3.8 4.7,7.8 9.8,12.8 13.8,10 35.6,23.1 64.6,28 3.5,0.5 7,1.1 12.7,1.9 20.5,3.3 45.3,3.2 72.1,-3.6 13,-4.1 27.8,-10.1 39.6,-20.4 5.9,-5.8 11.6,-12 17,-18.2 l 10.1,-18.4 c 27.3,-50.3 30,-110 19,-150.8 -0.6,-4.6 -2,-7.2 -2.8,-9.8 -3.1,-9.9 -7.4,-17.6 -11.6,-25.6 24.7,31.4 35.8,74.4 37.1,118.1 -0.7,59.3 -12.7,118.8 -50.7,149 -35.3,32.9 -95.4,47.2 -145.7,49.5 -26.8,0.5 -53.5,-0.3 -79.9,-2.9 -19.6,-2 -38.6,-4 -56.8,-5.9 -25.4,-3.2 -49.1,-5.1 -70.7,-6.2 -28,-8.9 -63.2,-14.5 -103.5,-19 -5.2,-0.1 -10.6,-0.3 -19.4,-0.5 -37.6,-4.7 -87.1,-4.8 -136.3,-0.7 -47.8,4.8 -95.7,10.1 -130.3,18.4 -10.5,1.5 -17.1,2.4 -23.5,3.3 -53.5,6.9 -97.3,18.7 -128.2,24.6 -30.9,6.9 -49.1,21.4 -49.1,21.4 0,0 18.1,13.2 50.6,17.7 32.7,5.2 79,7.2 133.8,4 6.5,-0.5 13.2,-1 23.8,-1.8 36.2,-0.1 83,-4.2 129.8,-8.9 47.1,-2.5 93.8,-9.1 128.5,-10.9 8.2,-0.1 13.2,-0.2 18.2,-0.3 24.5,0 47.1,0 67.5,0 26.7,8.7 59.5,18.6 98.4,26.2 6.9,1.2 13.9,2.4 21,3.8 8.3,1.2 25.4,4.4 38.5,5.6 28.2,3.8 58.1,5.8 89.6,5.9 64.4,-2.6 133.3,-13.9 194.9,-65.5 30.5,-24.8 51.3,-61.6 62.5,-97.7 12.7,-36.8 14.5,-72.9 15.7,-110.3 -0.1,-3.5 -1,-7.4 -1.2,-11 2.5,15.4 4.2,31.2 8.2,45.9 6,25.6 11.8,50.7 17.4,74.9 2.4,10.5 8.7,26.7 10.1,31.5 l 3.5,9.8 c 9.2,25.6 16.8,47 22.2,62.2 4.7,14.4 7.7,23.6 7.7,23.6 0,0 -2.4,-9.4 -6.2,-24.1 -3.6,-15.6 -8.7,-37.7 -14.8,-64.1 -3,-13.5 -6.2,-27.5 -9.5,-42 -3.4,-24.3 -7,-49.4 -10.7,-75.2 -9.9,-51.1 -8.5,-106.5 -12.4,-162.6 -0.5,-79.4 6.9,-162.1 20.9,-244.7 8.2,-16.8 15,-34 19.7,-51.8 7,-28.3 10.9,-57.2 11.2,-86.6 28.6,-104.7 67.9,-206 114.6,-296.9 26.1,-50.2 53.7,-97.6 82.6,-140.8 15.1,-21.1 28.4,-42.9 44.2,-61.6 7.6,-9.6 15.1,-19.1 22.4,-28.4 5.1,-6.7 5.4,-6.3 8.2,-9.7 17.9,-20.3 32.7,-37.6 44.9,-47.8 11.5,-10.3 18.6,-16.5 18.6,-16.5 0,0 -7.5,5.8 -19.6,15.4 -13.3,8.9 -30,24.3 -50.4,42.7 -3.2,3.1 -3.6,2.7 -9.4,8.9 -8.1,8.7 -16.5,17.6 -25,26.7 -17.6,17.7 -32.9,38.3 -49.8,58.7 -32.7,41.6 -63.9,88 -93.3,137.8 -39.6,67.8 -73.9,143.1 -101.4,221.8 -2.3,-7.5 -3.7,-15 -6.7,-22.5 -27.1,-65 -85.5,-108.3 -142.4,-134.2 31.1,-12.1 66.3,-39 88.7,-80.2 3.4,-7.2 6.9,-14.4 10.4,-21.8 5,-10.1 7.6,-22 11.5,-33.3 8.2,-22.9 9.3,-47.6 11,-72.4 0.6,-24.9 -2.1,-50.5 -7.4,-76.6 -9.6,-24.7 -18.2,-55.8 -35.4,-76 -31.1,-47.1 -69.3,-80.2 -107.6,-115.3 138.8,0.5 154.2,-176.9 158.6,-200.2 4.8,-47.9 -9.1,-101 -39.6,-141.9 -63.7,-79.54 -149.5,-119.68 -226,-167.9 -79.7,-51.22 -170.7,-85.41 -256.3,-109.19 -43.4,-9.29 -84.8,-20.41 -126.3,-22.82 -39.6,-5.41 -83.6,-5.21 -107.7,-5.04 -55.1,-0.75 -100.4,7.33 -131.6,10.16 -31.3,3.92 -50.8,16.66 -50.8,16.66 0,0 16.7,14.86 48.7,22.36 32.2,8.45 77.7,14.37 131.3,18.74 23,2.25 65.9,4 100.6,10.33 37.2,3.29 75.8,14.95 116,24.19 78.6,23.61 160.7,54.3 235.3,102.28 77.4,48.3 160.9,90.49 206.5,145.93 21.7,28.2 29.9,59 29,89.3 11.6,36.2 -29,168.2 -112.2,162.5 -5.3,4.7 -10.5,8 -15.3,10.9 -6.9,-6 -13.9,-11.9 -20.9,-17.8 l -66,-45.9 c -90.2,-58.1 -190,-100.5 -285.2,-128.4 -48.6,-10.9 -94,-26.4 -139.8,-31.3 -22.7,-3.2 -44.7,-6.4 -66,-9.4 -5.9,-0.7 -12.2,-1.6 -18.2,-2.3 -2.1,-0.4 -4,-0.8 -6.2,-1.2 -31.8,-4.1 -76.4,-5.5 -130.7,-6.4 -5.1,0.1 -10.3,0.1 -18.8,0.2 -56.6,0.4 -124,1.1 -196.9,7.6 -23.5,2.3 -47.6,5.7 -72,9.9 -1.7,-3.1 -3.4,-5.9 -5.3,-9.2 -15.1,-24.6 -28.8,-62.5 -33.5,-109.39 l -0.5,-18.03 0,-2.33 c 0.1,-2.29 -1,-9.25 -0.3,-13.74 1.2,-10.08 0.6,-20.37 2.9,-30.36 3.4,-20.11 9,-40.14 17.8,-58.84 17.1,-37.65 45.2,-70.38 81.2,-93.86 17.9,-12.12 38.2,-20.53 58.8,-28.95 23.9,-6.87 47.8,-13.78 71.9,-20.73 48.2,-13.91 97,-28.07 146.5,-42.4 50.6,-9.41 101.9,-18.99 153.7,-28.61 51.5,-11.66 104.7,-16.03 158.3,-20.82 53.6,-3.91 107.4,-13.16 162.4,-11.74 440.6,-19.32 904.1,87.66 1360.6,212.96 114.6,30.98 230.6,60.34 348.3,84.49 60.3,8.58 119.1,20.91 182.1,20.62 l 46.4,1.45 48.1,-6.57 47.6,-7.21 42.5,-10.2 c 226.1,-54.97 448.9,-108.56 666.5,-156.24 217,-49.94 426.8,-98.2 625.7,-143.92 99.3,-24.41 196.3,-43.39 289.4,-70.38 58.2,-16.16 114.4,-31.81 168.4,-46.8 52.1,-17.16 94.8,-32.94 123.4,-48.23 13.9,-7.66 24.3,-15.2 31.3,-20.94 5,4.79 9.6,9.24 14.7,14.11 28.9,31.15 61.9,60.76 90.2,95.87 61.5,66.37 112.8,147.62 147.7,238.36 33.9,92.32 35.2,195.34 23.4,297.23 -13.9,102 -61.4,196.8 -109.8,290.5 -47.8,94 -97.6,189.8 -120.2,293.5 -8.4,25 -8.6,51.8 -13.2,77.5 -3.4,25.8 -8.7,51.4 -5.8,77.7 -1.4,52.5 10.7,102.7 22.7,151.5 29.3,96.5 77.2,181.6 127.6,257.8 26.3,37.6 52.9,73.3 81.7,105.4 3.9,4.4 7.7,8.7 11.4,13.1 -31,-8.9 -74.4,-15.8 -126.7,-22.2" />
    </g>
    <g
       transform="matrix(0.03391948,0,0,-0.03391948,-484.84013,1440.6649)"
       id="g210">
      <path
         id="path212"
         style="fill:#fcefde;fill-opacity:1;fill-rule:nonzero;stroke:none"
         d="m 16144.6,13184.9 c 4.3,3.6 8.9,7.6 15.5,11.8 8.9,4.5 18.8,11.1 29.2,20.1 10.8,8.3 23.8,16.1 34.2,29.1 2.3,2.2 4.5,4.4 8.1,7.9 35.8,36.5 68.4,103.8 52.5,166.6 -16.7,69.4 -73.6,94.4 -118.5,67.3 -5.3,-2.8 -8.6,-4.6 -11.9,-6.3 -26.9,-15.8 -46.2,-35.3 -59,-50.3 -3.9,-6 -8,-9.9 -12,-13.9 2.9,-5.7 6.2,-13.9 8.1,-24 1.9,-10.8 4,-23.2 6.2,-36.1 4.2,-13.5 0.2,-77.4 44.4,-154 1.9,-7.4 2.5,-12.7 3.2,-18.2" />
    </g>
    <g
       transform="matrix(0.04493987,0,0,-0.04493987,-484.84013,1440.6649)"
       id="g214">
      <path
         id="path216"
         style="fill:#211c1d;fill-opacity:1;fill-rule:nonzero;stroke:none"
         d="m 13617.5,10015.4 c -1.6,-3.7 -2.7,-6.1 -3.7,-8.4 -11.4,-24.09 -21.7,-44.32 -30.3,-57.66 -8.7,-13.26 -14.6,-20.2 -14.6,-20.2 0,0 5.8,6.86 17.8,17.62 11.4,11.14 28,27.26 45.2,49.41 1.7,1.99 3.1,4.23 5.5,7.83 24.5,34 51.8,85.3 61.2,142.4 10.4,56.1 0.8,115.5 -18.9,153.5 -2.1,5.1 -3.7,8.2 -5.7,11 -14.2,25 -31.2,41.7 -42.5,52.8 -12.2,10.6 -18.2,17.1 -18.2,17.1 0,0 5.9,-6.9 14.9,-19.9 9.1,-12.8 18,-33.8 26,-58.4 1.2,-2.9 1.8,-6 2.9,-11 9.5,-37.4 11.3,-88.3 2.7,-138.5 -9.5,-50.6 -25.6,-101 -42.3,-137.6 z m 91.9,1087 c -1.9,38.4 0.3,76.6 -6.1,112.9 -5.2,36.2 -10.1,71.2 -14.9,104.4 -1.9,16.6 -6.5,32.4 -10.2,47.7 -2.7,10.7 -5.4,21.1 -8,31 -6.9,26.1 -12.7,48.1 -16.8,63.7 -3.4,14.2 -5.7,24.2 -5.7,24.2 0,0 1.4,-10.2 3.4,-24.7 1.7,-15.9 4.1,-38.5 7,-65.4 1.2,-10.1 2.3,-20.6 3.5,-31.5 1.5,-15.5 4.7,-31.2 4.7,-47.9 1.8,-33 3.6,-67.7 5.5,-103.7 3.7,-35.8 -0.6,-73 0.1,-110.5 1,-37.7 -1.8,-75.7 -6.4,-113.5 -3.3,-37.9 -6.3,-75.9 -15.1,-112.3 -7.4,-36.5 -11.6,-73.5 -24.3,-106.8 -11.3,-33.6 -18,-68.3 -33.9,-96.8 -7,-14.9 -13.8,-29.3 -20.3,-43.2 l -9.5,-20.9 c -2.2,-5.5 -4,-6.4 -6,-9.8 -15.1,-22.1 -27.7,-40.4 -36.9,-53.8 -8.8,-12.1 -14.7,-20.1 -14.7,-20.1 0,0 6.5,7.4 16.4,18.7 11.2,12 26.6,28.5 45.2,48.5 2.5,3.1 4.5,3.9 7.4,9.1 l 12.4,19.7 c 8.3,13.6 16.8,27.6 25.6,42.1 20.1,27.9 29.1,62.8 44,96.7 15.7,33.9 22.5,71.5 31.5,109.3 10.4,37.6 14.3,76.7 17.5,115.9 4.6,39.1 6.9,78.3 4.6,117 z m -1561.5,-964.9 c 9.6,11.3 24.2,26 44.5,37.9 2.5,1.3 4.9,2.6 9,4.8 33.9,20.4 76.8,1.6 89.4,-50.8 12,-47.4 -12.6,-98.2 -39.6,-125.8 -2.7,-2.6 -4.4,-4.31 -6.1,-5.93 -7.9,-9.85 -17.7,-15.71 -25.8,-21.95 -7.9,-6.85 -15.3,-11.84 -22.1,-15.21 -4.5,-2.9 -8.3,-5.81 -11.4,-8.39 -0.6,3.78 -1.4,8.27 -2.7,13.22 -33.4,57.86 -30.3,106.06 -33.5,116.26 -1.7,9.7 -3.3,19.1 -4.7,27.3 -1.4,7.4 -3.8,13.4 -5.9,17.7 2.9,2.8 6,6.5 8.9,10.9 z m -26.4,-58.6 c 0.8,-11.5 7.2,-85.31 45.1,-122.46 4.3,-4.77 8.3,-8.47 11.5,-11.18 -0.8,-0.83 -1.2,-1.32 -1.2,-1.32 0,0 1.2,-0.38 3.8,-0.75 3.7,-2.87 6,-4.2 6,-4.2 0,0 0,1.33 -0.1,3.57 4.4,-0.29 10.1,-0.33 17.1,0.34 8.9,0.29 18.8,3.28 29.3,8.97 10.7,5.11 23.3,10.72 34,21.07 2.1,1.83 4.2,3.74 7.6,6.77 34,29.69 71.6,92.39 54.3,159.89 -4.6,15.4 -13,29.7 -19.7,44.1 -12.2,12.1 -20.5,27.8 -38.2,33.3 -15.5,9.3 -32.3,7.9 -47.6,8.1 -13.7,-4.4 -28.4,-6.5 -38,-14 -5.1,-3.3 -8.3,-5.3 -11.5,-7.3 -25.6,-17.7 -37.5,-41.3 -43.3,-57.3 -2.6,-11.3 -2.1,-19.5 -1.4,-23.9 -1.5,-3.8 -2.8,-8.3 -3.7,-13.9 -1.3,-8.1 -3,-18.2 -4,-29.8 z m -96.7,-162.02 c 2.3,4.74 7.1,11.22 11.4,19.87 4,8.6 9.8,19.11 10.4,30.87 1.6,11.68 2.2,24.56 1.4,37.28 -5,24.5 -13.4,48.6 -26.5,62.8 -5.7,7.6 -12.1,13 -15,17.3 -3.5,4.1 -4.6,6.7 -4.6,6.7 0,0 1,-2.7 1.2,-8.2 0.7,-5.2 -0.5,-13.5 0.2,-22.3 2,-17.7 0.4,-40.6 5.6,-61.5 0.2,-10.72 1.7,-21.27 4.2,-31.5 3.6,-10.34 3,-19.82 4.4,-28.5 1.4,-7.94 2.4,-14.26 3.8,-21.86 0.9,-5.53 0.3,-8.4 0.3,-8.4 0,0 0.5,2.87 3.2,7.44 z m -64.5,550.52 c -2.3,5.2 -3.7,8.4 -5.2,11.7 -5.3,13.6 -12.9,24.7 -21.1,33.5 -7.2,9.2 -14,16.6 -21.2,21.2 -13.2,9.9 -19.3,16.2 -19.3,16.2 0,0 6.1,-7 14.1,-20.5 4.7,-6.2 7.8,-15.4 10.8,-25.8 3.9,-9.8 6.8,-21.1 8.6,-33.9 0.7,-3 1.3,-6 2.3,-10.8 0.7,-11.7 1.5,-27.2 3.8,-42.3 -0.2,-15.8 4.3,-31.3 5,-43.5 0.2,-4.2 0.2,-6.6 0.3,-9.1 2.2,-26.3 2,-49 2,-65.1 -0.4,-16 -2.6,-24.9 -2.6,-24.9 0,0 2.1,8.7 8.9,23.5 6.8,14.8 15.5,36.7 20.6,64.5 0.4,2.7 0.8,5.4 1.5,9.7 3.8,12.8 4.4,30.7 3.6,48.5 -2.5,17.4 -5.8,35 -12.1,47.1 z m -105.2,965.9 c -0.8,-3.9 -1.2,-6.4 -1.7,-8.8 -4,-25.6 -9.5,-47.8 -14.5,-62.9 -4.9,-15.2 -9.4,-23.2 -9.4,-23.2 0,0 4.4,7.9 15.1,20.2 11.1,12 24.6,31.5 36.3,57.6 1,2.4 2,5 3.6,9.1 7,12.4 11.4,30.8 14.1,49.4 0.5,18.6 1,37.6 -4.1,51.1 -1.4,5.5 -2.3,8.9 -3.1,12.4 -2.9,14.2 -9.2,26.2 -15.2,36.4 -5.1,10.5 -10.9,18.6 -16.8,24.6 -10.6,12.6 -15.2,20.1 -15.2,20.1 0,0 4.4,-8.1 9.4,-23.1 3,-7.2 5,-16.7 5.9,-27.5 1.5,-10.6 3.4,-22.1 2.9,-35.2 0.1,-3 0.2,-6.1 0.3,-11 -0.4,-12.1 -3.3,-28.2 -3.4,-44 -3.2,-15.9 -1.9,-32.7 -4.2,-45.2 z m -18,-597.3 c -0.3,-4 -0.5,-6.6 -0.7,-9.1 -2.7,-26.4 -4.2,-49.3 -6.8,-65.1 -2.2,-15.9 -5.1,-24.5 -5.1,-24.5 0,0 2.9,8.5 10.6,22.7 8.2,14 18.1,34.9 27.8,61.3 0.7,2.6 1.4,5.1 2.6,9.3 6.7,17.8 12.4,42.8 13.6,68.3 0.2,25.3 -1.9,50.8 -8.7,68.9 -1.3,5.4 -2.2,8.7 -3,12 -9.3,27.1 -20.6,47.9 -30.2,61.1 -8.9,13.5 -12.7,21.6 -12.7,21.6 0,0 3.5,-8.5 7.2,-23.9 4.9,-15.1 5.8,-38.2 8.5,-63.9 0.1,-3.1 0.2,-6.3 0.3,-11.5 0.3,-17.3 -0.8,-40 -0.7,-62.7 -2,-23.1 -1.5,-46.5 -2.7,-64.5 z m 697.8,-985.81 c -2.2,10.3 -4.4,21.02 -6.8,32.12 -3.8,14 -4.4,29.38 -6.8,44.67 -4.2,30.71 -8.6,63.08 -13.3,96.52 -6.9,67.5 -15.2,139.1 -25,211.3 -9.6,71.6 -19.2,143.3 -28.1,210.4 -5.6,33.5 -9.7,65.9 -12,96.9 -2.7,26.7 -5.2,52 -7.6,75.4 -3.1,26.8 -5.7,49.4 -7.5,65.4 -1.2,14.5 -2.1,24.8 -2.1,24.8 0,0 -0.2,-10.3 -0.4,-24.8 -0.6,-16.2 -1.6,-38.8 -2.8,-65.8 -0.7,-23.7 -1.5,-49.3 -2.3,-76.3 -1.7,-31.5 0.4,-64.4 3,-98.5 5.2,-68 10.4,-141.5 20.8,-212.8 9.2,-71.6 20.5,-143.8 32.9,-210.9 7.9,-33.32 15.4,-65.56 22.6,-96.15 4.2,-15.17 6.4,-30.21 11.8,-44.13 3.9,-10.85 7.8,-21.36 11.4,-31.42 9.5,-25.39 17.3,-46.41 23.1,-61.75 4.6,-12.01 7,-19.9 7.7,-22.52 -0.7,2.62 -2.9,10.64 -5.5,23.27 -3.3,16 -7.7,37.86 -13.1,64.29 z m 18.6,-87.56 c 0.2,-0.62 0.3,-1 0.3,-1 0,0 -0.1,0.38 -0.3,1 z m -1460.9,1483.17 c 5.1,0.8 9.9,1.8 14.4,2.8 1.6,-0.5 3.3,-1 5,-1.5 52,-14.2 103.2,-20.5 152.1,-26 24.5,-1.5 49,-3.9 72.6,-4.7 8.6,0 17.3,-0.8 26,-0.8 31.2,0 59.6,1 84,3.3 27.7,-5.8 61.6,-10.7 100.3,-15.4 45.7,-3.6 95.2,-7.4 147.6,-11.5 61.2,-4.1 127.8,1.5 192,16.4 57.5,13.4 113.7,29.4 172,45.1 13.9,1.5 30.6,-0.2 49.2,-2.6 20.5,-1.3 43.1,-2.5 67.2,-9.2 l 18.5,-3.8 c 7,-1.4 20.8,-2.9 29.9,-8 19.3,-9.6 44.6,-14.8 60.9,-27.6 35.3,-22.2 61.4,-62.7 73.6,-110.7 12.1,-46.7 11.8,-105.1 -6.6,-148.2 -4,-9.4 -9.1,-18.1 -15.1,-26.4 1.1,2.6 2.1,5.4 3.1,8.1 0.9,2.6 1.7,5.3 3.2,9.6 11.8,43.8 18.4,111.1 -21.9,168.6 -8.2,15.3 -24.4,23.3 -37.5,33.6 -15.2,5.5 -30.7,13.7 -45.9,13.6 -30.5,4.8 -57,-1.6 -78.7,-6.5 -5.5,-1.3 -8.9,-1.8 -12.1,-2.9 -26.9,-7.9 -47.5,-18 -61.9,-25.3 -9.2,-4.6 -15.3,-10.1 -18.5,-13.4 -1.3,3 -2.5,4.5 -2.5,4.5 0,0 -7.9,-10.3 -11.7,-22.4 -7.3,-13.8 -17.3,-33.3 -26.9,-60.5 -0.7,-3.7 -1.4,-7.4 -2.6,-13.4 -7.1,-20.5 -4.4,-44.7 -1.5,-68.3 2.8,-24.1 9.9,-47.9 16.8,-65.1 1.5,-4.2 2.5,-6.8 3.4,-9.3 9.8,-27 25.7,-47.4 38.9,-58.5 9.9,-6.1 17.6,-8.7 21.8,-9.8 -11.4,-3.8 -22.5,-7.8 -33.2,-12.3 -57.5,-22.9 -110.6,-48.9 -162.3,-68 -51.6,-22.4 -102,-29.1 -150.9,-40.4 -46.8,-5.2 -91.1,-10.2 -132,-14.7 -26,-2.6 -50.8,-8.9 -71.2,-9.1 -20.7,0.2 -37.3,-0.4 -54.9,-2.3 -0.5,-0.1 -0.9,-0.1 -1.3,-0.2 -22.4,4.8 -47.7,9.2 -75,12.9 -34.9,2.5 -72.7,5.2 -112.7,8 -42.8,2 -86.2,8.5 -131.2,15.6 -88.2,15.4 -184.5,40.1 -247.1,98.4 -62.1,56.4 -73,153.6 -56.1,235.5 8.6,41.2 24.4,79.4 45.1,110.9 18.7,30.8 51.5,58.6 66.7,69.6 38.6,25 77.4,38.3 107,42.3 z m 926.2,148.5 c -0.7,2.2 -1.4,4.6 -2.6,8.3 -2.9,17.6 -5.6,41.1 -6.5,65.1 -0.5,23.6 1.4,47.1 2.8,64.8 0.6,5.1 1.6,7.9 2.1,10.9 4.9,24.8 10.1,45.5 16.4,58.8 2,5 3.7,9.7 4.9,13.5 4.4,0.9 9.9,2.4 15.5,4.9 14.6,4 34.9,8.9 60,11.3 2.9,0.3 6,0.5 10.9,0.9 34.9,0.6 84.7,-2 100.1,-43.9 21.9,-41.5 27.6,-90.8 21.2,-125.7 -0.3,-3.9 -1.5,-6 -2,-8.3 -4.8,-24.2 -13.2,-43.4 -19.3,-57.3 -2.5,-5.2 -4.3,-10.1 -5.6,-14.1 -17.9,-9.7 -39.2,-15.8 -65.1,-22.8 -32.2,-9 -64.3,-18 -96.2,-26.9 -3.2,-0.8 -6.4,-1.8 -9.7,-2.7 -1.3,2.4 -2.6,5 -4.1,7.7 -7.8,12.4 -16.2,31.4 -22.8,55.5 z m 260.6,-63.8 c 46.3,31.2 73.9,79.8 87.6,130.1 -1.8,-17.3 -3.4,-34.8 -5.6,-52.6 -3.3,-57 -2.1,-116.2 3.5,-175.9 -12.6,12.6 -26.4,23.7 -41.6,32.8 -26.8,18 -53.5,22.2 -79,33 -4.5,2 -9.6,3.5 -14.7,4.7 17.1,6.9 34.3,15.8 49.8,27.9 z m 30.6,-387.9 c -1.1,-3.7 -1.8,-6 -2.4,-8.2 -5.5,-24.6 -14.1,-43.5 -20.2,-57.3 -1.5,-2.9 -2.9,-5.8 -4,-8.4 -13.5,-8.6 -28.2,-16.2 -43.8,-22.9 -26.1,-11 -52.9,-19.3 -81.5,-28 -17.6,-5.9 -35.7,-11.3 -53.4,-17.2 -1.4,3.5 -5,11.9 -10.6,21.1 -6,14.1 -15.6,31.8 -21.8,56.9 -0.7,2.3 -1.5,4.6 -2.7,8.4 -3.3,16.3 -6.4,38.3 -9.7,60.5 -2.8,22.1 -5.4,44.2 -3.3,57.7 0.5,4.5 0.8,7.2 1.1,10 6.9,24.5 10.8,48.1 12.9,64.6 -0.2,8.1 -1.5,14.2 -3,18.5 4.5,-1 12.4,-2.2 22.6,-1.1 16,1.9 38.5,5.3 64.2,10.9 3.1,0.5 6.2,1 11.2,1.8 38.8,6.1 97.1,10.5 123.7,-30.5 27.8,-38.7 29,-98.4 20.7,-136.8 z m 1,-273.9 c 11.3,-22.2 20.6,-59.3 20.6,-98.4 -0.2,1.2 -0.5,2.4 -1,3.9 -3.6,28.6 -21.2,79 -69,96.1 -43.9,15.4 -90.4,2.9 -115.5,-14 -4.9,-3.1 -7.9,-5 -10.9,-6.9 -24.7,-16.3 -41.4,-36.5 -47,-54.2 -3.3,-8.9 -3,-16.3 -2.1,-21.2 -0.2,0.4 -0.4,0.7 -0.4,0.7 0,0 -7,-9.1 -9.9,-24.8 -2.8,-15.8 -7.1,-38.5 -6.7,-66.4 0,-3.3 0,-6.7 0,-12.1 -1.1,-10.9 -0.1,-25.2 1.6,-39.5 2.8,-14.6 6.6,-28.9 11.5,-39.1 1.6,-4.3 2.6,-6.9 3.6,-9.5 5.1,-13.7 11,-25.8 18.8,-35.2 6.8,-9.9 13.1,-18 20.9,-22.6 7.9,-5.3 14.3,-8.3 18.5,-10 l -0.1,-0.1 -60.6,-42.3 c -83,-53.3 -174.1,-92.6 -263.6,-120.5 -45.5,-10.7 -88.7,-26.9 -130.9,-32.6 -39.4,-6.8 -88.8,-17.5 -108.8,-16.7 -31.6,-2.3 -61.6,-6.3 -87.4,-9.7 -2.8,0.3 -5.6,0.5 -8.5,0.8 -5.1,0.3 -10.3,0.6 -18.7,1.1 -56.9,3.6 -122.3,7.7 -190.7,16.1 -67.2,7.8 -141.6,24.5 -196.2,54.1 -51.9,32.2 -84.8,93.6 -97.3,154.4 -12.4,61.4 -7.4,122.2 7.1,169.6 2.3,9.3 4.6,14.6 7,19.8 17.8,43.7 39.3,78.3 61.6,96.6 9,11 18.4,16.8 24.2,24.1 28.8,-6.6 57.2,-11.5 84.3,-15.7 47.6,-6.3 94.1,-11.5 137.2,-11.8 40.7,-1.2 79.2,-2.2 114.7,-3.2 53.8,-1.3 97.1,-3.2 129.5,0.9 0.4,0.1 0.8,0.1 1.3,0.2 0.8,-0.2 1.7,-0.4 2.5,-0.6 23.5,-4.4 48.3,-1.6 76.5,-1.8 7.4,0.4 15.1,0.7 22.8,1.1 12.1,0.9 24.4,1.8 36.9,2.7 25,2 50.7,4.2 77.2,6.4 53.6,9.9 114,17.8 168.5,40.1 56.1,19.5 110,44.7 164.4,65.7 27.3,11.1 54.8,18 82.4,27.6 16,4.7 32.7,9.8 49.4,15.6 3.3,-2.2 6.7,-4.4 10.3,-6.8 25.7,-15.5 53.5,-38.9 72,-81.9 z m -13.4,-207 c -22.5,-33.5 -60.7,-66.9 -97.3,-99.2 l -52.2,-43.6 c -1.5,4.4 -4.2,11.2 -8.3,18.8 -4.3,6 -7.4,14.7 -11.4,24.1 -4.8,8.9 -8.2,19.8 -11.3,32.1 -0.7,2.2 -1.5,4.5 -2.7,8.2 -1.4,9.6 -1.5,23 -4.7,35.6 -1.4,13 -3,26 -5.9,35.7 -0.3,5.1 -0.6,8.4 -0.7,11.5 -2.2,26.3 -5,49 -7.9,64.8 -1.4,8 -3.8,14.3 -5.8,18.6 2.4,2.5 8.3,9.4 15.8,17.3 8.3,11.1 26.2,22.6 47.4,34.6 2.6,1.5 5.3,2.9 9.5,5.2 24.1,11.5 57,17.6 85.5,8.1 27.5,-9.5 43.7,-40.6 50.3,-66.6 1.3,-3.6 1.7,-6 2,-8.4 4.5,-24.9 8.2,-45.2 11.3,-62.3 0.8,-3.6 1.7,-6.9 2.6,-9.8 -4.4,-8.8 -9.8,-17.1 -16.2,-24.7 z m 3951.2,852.6 c -32.2,5.2 -77.5,6.2 -131.8,5.5 -53.9,-3.3 -110.1,-6.7 -168.2,-10.2 -92.7,-6.1 -188.4,-13 -287.1,-12.6 -197.2,-3.3 -405.2,-6.7 -620.4,-10.2 -215.3,-6.8 -437.3,-3.3 -657.8,29.9 -217.3,33.8 -445.4,96.7 -602.3,248.6 -77.6,74.7 -128.7,173.2 -166.9,277.9 -38.7,104.7 -67.6,217.8 -120.8,324.3 -13.5,26.4 -29.7,51.9 -44.4,77.7 -15.7,24.6 -32.5,46.6 -48.6,70 -32.2,45.9 -64.3,91.7 -96.1,137.1 -63.8,90.4 -122.9,181.3 -175.2,273.3 -24,46.9 -49.8,92.8 -71.7,139.3 -21.1,46.7 -37.2,94.7 -50.9,142.7 -25.6,96.4 -35.6,194.3 -30.8,289.9 3.6,96 22.7,187.5 35.6,282.9 2.9,24 4.9,48.8 4,75 -1.1,13.4 -2.3,26.8 -6.2,40.9 -0.7,6.1 -5.4,16 -6.5,19.2 l -1.4,3.2 c -3.3,8.8 -10,16.6 -15,24.3 -23.2,29.1 -53.9,39.7 -77.4,44.1 -7,2.3 -14.3,4.5 -22.2,6.6 -22.9,8.7 -50.4,10.3 -80.4,8.7 -7.9,0 -15.8,0.8 -23.7,-0.8 -18.9,-3.9 -37.8,-8.6 -57.5,-12.6 -41,-13.4 -82,-31.5 -120.6,-55.2 -37.9,-23.7 -75,-50.4 -109.7,-78.8 -35.4,-30 -74.1,-66.2 -100.9,-107.2 -56.7,-81.3 -94.6,-175.1 -121.4,-272.1 -26.8,-97.7 -41.8,-198.6 -41,-303.5 2.4,-210.5 102.5,-402.1 182.9,-563 37.9,-81.9 67.8,-164.7 80.4,-243.6 6.4,-39.4 7.9,-78 3.2,-113.5 -3.2,-17.4 -6.3,-34.7 -12.6,-49.6 -4.7,-11.8 -4.7,-13.4 -7.8,-19.7 -4.8,-11.9 -11.1,-23.7 -18.2,-34.7 -19.7,-7.2 -40.2,-13.5 -60.7,-19 -47.3,-12.6 -97.8,-21.3 -149,-26.8 -51.3,-7.1 -106.5,-4.7 -161.7,-7.8 -219.1,-7.9 -457.3,9.4 -696.9,7.8 -60.7,-1.6 -119.1,0.8 -182.1,-4.7 -63.1,-4.7 -127.8,-24.5 -183.8,-60.7 -55.9,-36.3 -99.3,-90.7 -122.2,-151.4 -22.8,-60.7 -27.6,-125.4 -18.9,-186.9 9.5,-60.7 31.6,-119 73.3,-167.1 18.1,-19.7 37.9,-34.5 58.4,-46.4 -20.9,-3.9 -43.2,-11.3 -65.6,-23.7 -6.5,-4.3 -13.2,-8.6 -20,-13 -7.4,-4.5 -17.5,-12.8 -25.5,-20.3 -17.5,-14.9 -32.8,-33.1 -46.6,-52.6 -27.8,-39.2 -48.2,-85.7 -59.5,-136 -11.4,-50.4 -13.7,-104.6 -3.3,-159 9.3,-54.8 38.1,-110.7 80.3,-150.2 49.8,-45.9 107.4,-72.4 165.1,-89.5 -1.4,-0.5 -2.9,-1 -4.4,-1.6 -33.8,-11.8 -76.3,-47.2 -103,-102.1 -3.6,-6.4 -7,-13 -10.5,-24.3 -22.6,-58.1 -31.3,-131.5 -17.4,-207.9 14,-75 55,-158.1 131.2,-206 38.2,-21.1 76.4,-34.8 113.9,-44.1 -25.5,-23.5 -53,-63.95 -62.1,-118.05 -1.3,-7.61 -1.8,-15.42 -2.7,-23.4 l -0.2,-2.99 c 0,-2.99 -1.3,-12.18 -0.5,-17.91 1,-13.13 0.5,-26.55 3.2,-39.65 4.1,-26.3 11.2,-52.48 22.4,-77.29 21.9,-49.86 59.3,-94.12 106,-124.99 23.2,-15.96 48.8,-27.02 74.7,-37.49 24.4,-7.23 49,-14.58 73.8,-21.94 49.6,-14.67 99.8,-29.59 150.7,-44.63 52.1,-10.06 104.8,-20.24 158.2,-30.5 53,-12.18 107.6,-16.96 162.8,-22.15 55.1,-4.32 110.6,-13.88 166.9,-12.67 452.3,-21.4 925.6,88.26 1380.9,213.22 114.4,30.79 228.3,59.46 342,82.94 56.6,7.94 113.6,19.9 168.6,19.36 l 41.5,1.62 39.1,-5.65 39.2,-5.32 42.7,-10.14 c 227.7,-54.76 451.8,-107.62 668.8,-153.79 216.6,-48.29 426,-94.95 624.6,-139.17 98.7,-23.4 196.6,-41.76 288,-67.44 57.5,-15.09 113.1,-29.72 166.5,-43.68 52.9,-11.26 97.4,-19.03 130.2,-20.44 32.7,-0.88 53.7,4.9 53.7,4.9 0,0 -13.9,15.25 -42.2,30.84 -28.5,15.25 -71.2,30.99 -123.1,48.12 -53.9,14.95 -110,30.58 -168.1,46.7 -92.9,26.93 -189.7,45.88 -288.8,70.23 -198.5,45.63 -407.8,93.79 -624.3,143.62 -217.2,47.58 -439.6,101.06 -665.2,155.91 l -42.3,10.18 -47.6,7.19 -47.9,6.57 -46.4,-1.46 c -62.8,0.29 -121.6,-12.01 -181.7,-20.57 -117.5,-24.1 -233.2,-53.39 -347.6,-84.31 -455.5,-125.04 -918,-231.8 -1357.7,-212.51 -54.8,-1.42 -108.6,7.81 -162.1,11.71 -53.5,4.78 -106.6,9.15 -158,20.78 -51.6,9.6 -102.8,19.16 -153.3,28.55 -49.4,14.29 -98.1,28.42 -146.2,42.3 -24,6.94 -47.9,13.84 -71.7,20.7 -20.6,8.39 -40.9,16.78 -58.7,28.88 -36,23.43 -64,56.1 -81.1,93.66 -8.8,18.66 -14.3,38.65 -17.7,58.72 -2.3,9.97 -1.7,20.24 -2.9,30.29 -0.8,4.49 0.4,11.43 0.3,13.72 l 0,2.32 0.4,18 c 4.8,46.79 18.4,84.61 33.5,109.11 1.8,3 3.4,6 5.1,8.8 24.4,-4.3 48.5,-7.1 72,-9.5 72.8,-6.4 140,-7.1 196.6,-7.6 8.4,-0.1 13.6,-0.1 18.7,-0.2 54.2,0.9 98.7,2.3 130.4,6.4 1.9,0.4 3.7,0.7 5.5,1 6.2,0.7 12.8,1.8 18.9,2.6 21.2,3 43.2,6.1 65.8,9.3 45.8,4.9 91.1,20.4 139.5,31.2 95.1,27.9 194.6,70.2 284.7,128.1 l 65.8,45.9 c 7,5.9 14,11.8 21,17.8 4.7,-2.9 9.9,-6.2 15.2,-10.9 82.9,5.7 123.5,-126.1 111.9,-162.2 0.8,-30.2 -7.3,-60.9 -29,-89.1 -45.4,-55.32 -128.7,-97.42 -206,-145.62 -74.4,-47.87 -156.4,-78.5 -234.9,-102.06 -40,-9.23 -78.6,-20.86 -115.6,-24.14 -34.7,-6.32 -77.5,-8.07 -100.5,-10.31 -53.5,-4.36 -98.9,-10.26 -131,-18.7 -31.9,-7.48 -48.5,-22.32 -48.5,-22.32 0,0 19.4,-12.71 50.7,-16.62 31,-2.82 76.3,-10.88 131.2,-10.14 24.1,-0.16 68,-0.37 107.5,5.03 41.4,2.41 82.7,13.51 126.1,22.77 85.4,23.73 176.2,57.85 255.7,108.96 76.3,48.12 162,88.18 225.5,167.55 30.4,40.8 44.4,93.8 39.5,141.6 -4.3,23.3 -19.7,200.3 -158.2,199.7 38.2,35.1 76.3,68.1 107.3,115.1 17.2,20.2 25.8,51.2 35.4,75.9 5.3,26 7.9,51.6 7.3,76.4 -1.6,24.8 -2.7,49.4 -11,72.2 -3.8,11.3 -6.4,23.3 -11.4,33.3 -3.5,7.4 -7,14.6 -10.4,21.7 -22,40.7 -56.7,67.6 -87.4,79.9 56.4,25.9 114.1,69.7 141,134.1 2.6,6.6 4.9,13.1 7,19.7 27.3,-77.7 61.8,-151.6 100.9,-218.6 29.3,-49.7 60.4,-96 93.1,-137.5 16.8,-20.3 32.2,-40.9 49.7,-58.6 8.5,-9 16.8,-17.9 25,-26.6 5.7,-6.2 6.1,-5.8 9.3,-8.9 20.4,-18.3 37,-33.7 50.3,-42.6 12.1,-9.6 19.6,-15.4 19.6,-15.4 0,0 -7.1,6.3 -18.6,16.5 -12.2,10.2 -26.9,27.5 -44.8,47.6 -2.8,3.5 -3.1,3.1 -8.2,9.8 -7.3,9.2 -14.7,18.7 -22.3,28.3 -15.8,18.7 -29.1,40.4 -44.1,61.5 -28.9,43.1 -56.4,90.4 -82.5,140.5 -45.9,89.5 -85.3,188.8 -113.8,291.8 0.1,30.9 -4.3,61.2 -11.7,90.9 -4.9,18.7 -11.8,37.1 -20.5,54.6 -13.8,81.4 -20.5,163 -20,241.3 3.8,56 2.5,111.2 12.3,162.2 3.7,25.8 7.3,50.8 10.8,75.1 3.3,14.4 6.5,28.4 9.4,41.9 6.1,26.3 11.2,48.3 14.8,63.9 3.8,14.7 6.2,24.1 6.2,24.1 0,0 -3,-9.2 -7.7,-23.6 -5.4,-15.1 -13,-36.5 -22.1,-62 l -3.5,-9.9 c -1.5,-4.7 -7.8,-20.8 -10.1,-31.4 -5.6,-24.1 -11.4,-49.1 -17.4,-74.7 -2.8,-10.3 -5.2,-20.9 -7.2,-31.5 -1.2,36.1 -3.2,71.1 -15.5,106.7 -11.1,36 -31.9,72.8 -62.4,97.5 -61.3,51.6 -130.2,62.8 -194.4,65.4 -31.5,-0.1 -61.3,-2.1 -89.4,-5.8 -13.1,-1.2 -30.2,-4.5 -38.4,-5.7 -7.2,-1.3 -14.1,-2.6 -21,-3.8 -38.7,-7.6 -71.7,-17.5 -98.4,-26.1 -20.3,-0.1 -42.8,0 -67.2,-0.1 -4.9,0.2 -9.9,0.3 -18.1,0.4 -34.7,1.8 -81.3,8.4 -128.2,10.9 -46.7,4.7 -93.4,8.8 -129.6,8.8 -10.6,0.8 -17.2,1.3 -23.7,1.8 -54.7,3.3 -100.9,1.3 -133.5,-4 -32.5,-4.4 -50.5,-17.6 -50.5,-17.6 0,0 18.1,-14.5 48.9,-21.3 30.9,-5.9 74.7,-17.7 128,-24.6 6.4,-0.9 12.9,-1.8 23.4,-3.3 34.6,-8.2 82.4,-13.6 130.1,-18.4 49.1,-4.1 98.5,-4 136,0.7 8.8,0.3 14.1,0.4 19.3,0.6 40.4,4.4 76,9.9 103.9,18.9 21.4,1.1 44.9,3.1 70,6.2 18.1,1.9 37.1,3.8 56.7,5.8 26.3,2.6 53,3.5 79.7,2.9 50.2,-2.2 110.2,-16.5 145.4,-49.4 37.9,-30.1 49.9,-89.4 50.6,-148.7 -1.2,-41.3 -11.4,-82.2 -33.5,-112.9 3,6.4 5.7,13.3 8,20.7 0.8,2.6 2.2,5.2 2.9,9.8 10.9,40.6 8.2,100.2 -19.1,150.4 l -10,18.4 c -5.4,6.2 -11.1,12.3 -16.9,18.1 -11.9,10.4 -26.6,16.3 -39.6,20.4 -26.8,6.8 -51.5,6.9 -71.9,3.6 -5.7,-0.8 -9.2,-1.4 -12.7,-1.9 -28.9,-4.8 -50.7,-17.9 -64.5,-27.9 -5,-4.9 -8.4,-9.4 -10.7,-13.1 -4.5,-1.9 -10.4,-5.1 -16.2,-11.3 -12.4,-12.3 -25.7,-33.8 -33.3,-61.8 -0.9,-3.3 -2.2,-6.7 -3.2,-12.2 -5.9,-19.3 -8.7,-46 -8.1,-72.7 0.3,-27 6.9,-53.8 13.7,-73.1 1.5,-4.3 2.5,-6.9 3.4,-9.5 10.6,-27 25.1,-48.1 40.3,-57.8 -54.1,-15.2 -107.7,-31.3 -158.5,-44.2 -59.2,-14.9 -115.6,-20.9 -170.7,-18.9 -52.2,2.3 -101.5,4.5 -147.1,6.5 -30.7,0.3 -58.6,0.1 -82.8,-1.1 -28.3,4.9 -63.3,8.7 -102.7,13.4 -8.8,0 -16.6,0.8 -25.3,1.6 -22.9,2.4 -45.7,3.9 -69.4,6.3 -46.5,5.5 -93.8,12.6 -140.3,26.1 -45.7,12.5 -91.4,33 -118.2,63.8 -28.5,33.1 -47.4,81.2 -53.7,130.1 -15,98.6 22.1,208.1 109.6,261.7 42.6,26.8 93.9,44.2 148.3,47.3 55.9,4.8 116.6,3.2 175,4.8 235.7,1.6 473.8,-15 699.3,-5.6 56.8,3.2 112,1.6 167.1,9.5 52.1,6.3 102.6,15.8 151.4,29.2 -7.9,-19 -11,-33.1 -11,-33.1 0,0 17.3,4.7 45.7,25.2 10.3,7.1 19.7,15.8 30,26.8 4.7,4.7 9.4,9.5 14.1,15 15,16.5 32.4,35.4 48.2,63.1 4.7,7.8 5.5,10.2 11.8,24.4 0.7,2.3 1.6,3.9 2.4,6.3 7.1,18.9 11,38.6 14.9,57.6 7.1,44.1 5.5,89.1 -0.8,134 -12.6,89.9 -44.1,178.2 -82,264.9 -39.4,87.5 -84.3,168.7 -115.9,257.8 -9.8,26.2 -18.6,52.9 -26.1,79.9 1.7,-0.8 5.1,-2.4 9.9,-5.1 8.8,-4.8 17.9,-9.8 29.3,-16.1 1.1,-0.6 2.3,-1.2 4.3,-2.2 12.7,-4.5 28.4,-7.8 45.2,-11.9 16.8,-5.5 35.1,-4.4 53.4,-3.1 18,1.5 36.3,1.5 52.6,5.3 15.8,5.5 30.6,10.7 43.4,15.1 2.5,0.9 4.1,1.5 5.6,2.1 11.8,4.7 22.5,9 30.7,12.3 7.4,2.9 11.7,4.1 11.7,4.1 0,0 -4.4,-1.2 -12.3,-2.4 -8.8,-1.3 -20.1,-3 -32.6,-4.8 -1.5,-0.3 -3.2,-0.5 -5.8,-1 -12.9,-2.4 -27.7,-5.3 -43.7,-8.4 -15.9,-2 -33.2,-1.2 -50.2,-2.6 -17.3,-1 -34.7,-3.2 -50.6,0.2 -16.2,1.8 -31.4,3.4 -44.4,4.8 -2,0.6 -3.2,1 -4.4,1.4 -12.3,3.4 -22.1,6.2 -31.4,8.8 -5.4,1.6 -9,2.9 -10.7,3.5 -18,63.9 -29,129.6 -30.6,196.1 0,186.8 51.2,384.7 146.6,529 23.7,37 52.8,63.9 85.2,92.3 33.9,28.3 67,53.5 100.9,74.8 33.9,22.1 68.6,37.9 103.3,50.5 15.7,4 31.5,7.9 47.3,11.8 6.3,1.6 11.8,1.6 18.1,2.4 24.5,2.3 46.5,5.5 66.2,3.2 0.1,0 0.1,0 0.1,0 21.6,-8.3 43.3,-19.8 54.1,-36.5 1.5,-4.1 4.5,-6.8 5.5,-11.7 l 0.5,-1.7 c 0.4,-1.7 3,-6 3.3,-10 2.1,-7.8 2.8,-17.1 3.6,-26.5 0.4,-19.5 -1.3,-40.9 -4.3,-62.9 -12.8,-88.8 -33.9,-186.4 -38.6,-288.3 -5.9,-101.9 4.2,-208.5 31.3,-312.9 14.5,-51.9 31.7,-103.8 54.1,-153.8 22.8,-49.4 49.3,-97 74.3,-146.2 53.9,-95.5 114.4,-189 178.4,-280.1 31.8,-45.5 63.7,-91.3 95.9,-137.4 15.7,-22.8 33,-45.7 47.5,-68.7 13,-23.3 27.3,-45.5 39.6,-69.5 48.4,-96.7 76.7,-206.4 117.1,-316.4 39.9,-109.7 96.6,-221.5 185.7,-307.1 87.7,-85.7 195.6,-145 306.2,-186.2 111.1,-41.1 225.6,-66.5 339.5,-83.6 228.1,-33.6 453.9,-35.8 669.5,-27.9 216.2,5.2 425.3,10.1 623.4,14.7 99.2,0.6 195.4,8.2 288.4,15.2 58.3,4.5 114.7,8.7 168.8,12.8 54.1,6.6 98.9,13.7 130,23 31,9.8 48.1,22.1 48.1,22.1 0,0 -19.1,9.9 -51.2,15.3" />
    </g>
    <g
       transform="matrix(0.03410492,0,0,-0.03410492,-484.84013,1440.6649)"
       id="g218">
      <path
         id="path220"
         style="fill:#e6aa5f;fill-opacity:1;fill-rule:nonzero;stroke:none"
         d="m 14900.8,14064.5 c 52.7,-3.8 102.5,-7.4 148.5,-10.6 36.1,-4.8 69.5,-10.7 98.9,-17 0.6,0 1,0.2 1.6,0.3 23.2,2.4 45.1,3.3 72.4,3 26.8,0.2 59.6,8.5 93.8,12 53.8,6 112.3,12.5 173.9,19.4 64.4,14.8 130.9,23.7 198.9,53.2 68.1,25.2 138.1,59.4 213.8,89.7 14.4,6 29.7,11 44.9,16.1 -4.1,0.7 -13.6,3 -29.9,13 -17.3,14.6 -38.3,41.4 -51.2,77 -1.2,3.4 -2.5,6.8 -4.5,12.3 -9.1,22.7 -18.5,53.9 -22.1,85.8 -3.9,31.1 -7.4,63 2,89.9 1.5,8 2.5,12.9 3.4,17.7 12.7,35.9 25.8,61.5 35.4,79.7 5.1,16 15.5,29.5 15.5,29.5 0,0 1.7,-3.1 3.2,-6.2 3.3,3.7 10.2,10.8 24.5,18 18.9,9.5 46,23 81.6,33.3 4.1,1.4 8.7,2.1 15.8,3.8 28.6,6.5 63.5,14.9 103.8,8.6 19.9,0.2 40.4,-10.6 60.4,-18 17.2,-13.5 38.6,-24 49.5,-44.2 53.1,-75.7 44.4,-164.5 28.9,-222.2 -2,-5.7 -3.2,-9.2 -4.4,-12.6 -1.8,-5.3 -4.5,-8.9 -6.5,-13.8 8.8,11.8 16.5,24.4 22.4,37.9 24.2,56.8 24.7,133.7 8.7,195.3 -16,63.3 -50.5,116.6 -97,145.9 -21.4,16.8 -54.8,23.7 -80.2,36.3 -12.1,6.8 -30.2,8.7 -39.4,10.5 l -24.4,5.1 c -31.8,8.8 -61.5,10.4 -88.6,12.1 -25.5,3.4 -48,5.3 -66.8,2.9 -75.9,-20.6 -149.6,-41.4 -224.6,-58.9 -84.7,-19.6 -172.4,-27 -253.1,-21.7 -69,5.5 -134.2,10.5 -194.5,15.3 -51.3,6.1 -96,12.7 -132.5,20.4 -32.2,-2.9 -69.1,-4.5 -110.3,-4.5 -11.4,0 -22.9,1 -34.3,1 -31.1,1.1 -63.4,4.2 -95.6,6.3 1.9,-0.1 3.6,-0.2 5.4,-0.4 203,-26.7 595.5,-77.2 652.9,-75.6 78,2.2 401.4,41.7 272.1,-14.9 -112.6,-49.2 -168.1,-86.8 -186.2,-128.6 2.7,-4.7 5.9,-10.3 11,-18.1 12.6,-17.3 27.5,-44.8 39.8,-80.4 1,-4.4 2.1,-8.8 4,-15.9 8.9,-23.9 11.6,-57.4 11.4,-90.7 -1.6,-33.7 -9.1,-66.6 -18,-90 -1.5,-5.5 -2.5,-8.9 -3.4,-12.2 -12.7,-34.8 -25.9,-62.4 -36.6,-80.9 -10.2,-18.6 -14,-29.9 -14,-29.9 0,0 3.8,11.4 6.7,32.3 3.5,20.8 5.4,51 9.1,85.8 0.2,3.3 0.5,6.7 0.8,12 1.6,23.7 1,54.6 3.5,85 -0.1,29.9 1.4,59.8 1,82.7 -0.1,6.7 -0.2,10.9 -0.4,15 -3.5,33.9 -4.7,64.4 -11.1,84.2 -1.9,7.6 -3.5,12.6 -5,17.5 -1.9,-4.9 -3.6,-10 -4.6,-15.2 -8.7,-49.8 30.3,-294.3 0,-367.9 -30.2,-73.6 -237.8,-82.2 -556.1,-70.4 -318.3,11.9 -578,98.4 -612.6,152.6 -34.2,53.4 -111,243.2 -31.4,396 -23.6,-39 -42.4,-84 -52.6,-133.1 -22.2,-107.9 -7.9,-236 73.9,-310.3 82.4,-76.8 209.4,-109.4 325.6,-129.6 59.4,-9.5 116.5,-18 172.9,-20.6" />
    </g>
    <g
       transform="matrix(0.03261,0,0,-0.03261,-484.84013,1440.6649)"
       id="g222">
      <path
         id="path224"
         style="fill:#e6aa5f;fill-opacity:1;fill-rule:nonzero;stroke:none"
         d="m 16295.4,15245.3 c 0,0 2,-5.9 4.6,-14.2 -2.6,8.3 -4.6,14.2 -4.6,14.2" />
    </g>
    <g
       transform="matrix(0.03261261,0,0,-0.03261261,-484.84013,1440.6649)"
       id="g226">
      <path
         id="path228"
         style="fill:#e6aa5f;fill-opacity:1;fill-rule:nonzero;stroke:none"
         d="m 16294,15244 c 0,0 2.3,-4.3 6,-10.8 -3.7,6.5 -6,10.8 -6,10.8" />
    </g>
    <g
       transform="matrix(0.03390921,0,0,-0.03390921,-484.84013,1440.6649)"
       id="g230">
      <path
         id="path232"
         style="fill:#e6aa5f;fill-opacity:1;fill-rule:nonzero;stroke:none"
         d="m 14595.1,15081.4 c 35.5,-40.8 96.1,-68 156.7,-84.6 61.6,-17.8 124.3,-27.3 186,-34.5 31.3,-3.2 61.6,-5.3 91.9,-8.4 11.5,-1 21.9,-2.1 33.5,-2.1 52.6,-6.3 99.2,-11.4 136.9,-17.9 32,1.5 68.4,1.9 109,1.5 60.3,-2.6 125.8,-5.6 194.9,-8.6 73,-2.6 147.7,5.4 226.2,25.1 67.4,17 138.7,38.2 210.3,58.5 -20.3,12.8 -39.5,40.8 -53.6,76.7 -1.3,3.4 -2.5,6.9 -4.5,12.6 -9,25.5 -17.8,61 -18.2,96.9 -0.8,35.3 3,70.7 10.8,96.3 1.3,7.3 3,11.8 4.2,16.2 10,37 27.7,65.6 44.2,81.8 8.2,8.8 16.5,13.1 22.6,15.4 3.1,5 6.2,10.4 13,16.9 18.2,13.3 47.1,30.7 85.5,37.1 4.6,0.7 9.2,1.4 16.8,2.5 27,4.4 59.8,4.3 95.3,-4.8 17.2,-5.4 36.7,-13.3 52.4,-27 7.7,-7.7 15.3,-15.7 22.4,-24 l 13.4,-24.4 c 36.1,-66.5 39.7,-145.5 25.2,-199.4 -0.8,-6 -2.8,-9.4 -3.8,-12.9 -4.1,-13.1 -9.8,-23.3 -15.3,-33.9 32.6,41.5 47.4,98.4 49.1,156.1 -1,78.5 -16.9,157.2 -67.1,197.1 -46.7,43.6 -126.2,62.5 -192.7,65.5 5.5,-0.2 11.4,-1.3 17,-1.8 -44.8,-32.7 -228.4,-75.2 -297,-107.5 -38.3,-18 -49.3,-38.3 -51.7,-62.1 2.7,-3.6 4.8,-6.5 8.8,-11.2 7.7,-8.1 15.4,-18.8 22.2,-32.8 7.9,-13.4 16.4,-29.3 20.2,-48.2 1,-4.5 2.2,-9 4,-16.4 6.8,-17.9 6.1,-43 5.5,-67.6 -3.6,-24.7 -9.4,-49.2 -18.7,-65.6 -2.1,-5.4 -3.4,-8.8 -4.7,-12.1 -15.6,-34.5 -33.4,-60.4 -48.2,-76.3 -14.2,-16.3 -20,-26.7 -20,-26.7 0,0 6,10.6 12.5,30.7 6.6,20 13.8,49.4 19.2,83.4 0.6,3.2 1.3,6.5 2.2,11.7 3.1,16.5 1.3,38.7 5.7,59.9 0.1,20.9 3.9,42.2 4.5,58.2 -0.2,6.6 -0.4,10.7 -0.5,14.7 0.7,17.2 -1.9,32.5 -3.9,46.5 -1.1,14.5 -3.7,27 -7.8,36.5 -6.6,19.9 -12.4,30.7 -12.4,30.7 0,0 5,-10 10.9,-26.6 -0.4,-22.3 3.6,-47.4 -0.8,-76.9 -10.1,-67.4 -25.3,-241.6 -77.5,-280.8 -52.3,-39.2 -102.4,-44.2 -461.6,-23.2 -359.1,21.1 -561.8,93.4 -603,177.8 -41.1,84.4 -38.7,188.4 -19.3,280.3 l 0,0 c -24.4,-61.5 -31.8,-130.5 -21.8,-195.9 8.3,-64.8 33.4,-128.6 71.1,-172.4" />
    </g>
    <g
       transform="matrix(0.03409857,0,0,-0.03409857,-484.84013,1440.6649)"
       id="g234">
      <path
         id="path236"
         style="fill:#e6aa5f;fill-opacity:1;fill-rule:nonzero;stroke:none"
         d="m 16300,15114.3 c -17,-69.7 -52.5,-138.3 -116.5,-181.3 -20.7,-16.2 -43.8,-28 -66.6,-37.1 7,-1.5 14.2,-3.1 20.3,-5.9 33.7,-14.3 68.9,-19.8 104.1,-43.5 20.3,-12.1 38.4,-27.4 55,-44.3 -7.4,79.1 -9.1,157.5 -4.6,232.9 3.2,26.9 5.6,53 8.3,79.2" />
    </g>
    <g
       transform="matrix(0.03396206,0,0,-0.03396206,-484.84013,1440.6649)"
       id="g238">
      <path
         id="path240"
         style="fill:#f2d3ad;fill-opacity:1;fill-rule:nonzero;stroke:none"
         d="m 15953.8,14562.5 c -2.8,-17.9 0.5,-47.2 4.3,-76.3 4.3,-29.4 8.5,-58.5 12.9,-80.1 1.5,-5 2.5,-8.1 3.5,-11.1 8.2,-33.3 21,-56.7 28.9,-75.4 8.6,-14.2 13.1,-25.5 14.1,-28.1 23.4,7.7 47.2,15.1 70.5,23.1 38,11.5 73.3,22.5 107.9,37 21.4,9.1 40.8,20.1 59.2,31.9 1.4,3.3 2.2,5.9 4.1,9.5 8,18.2 19.4,43.2 26.6,75.8 0.8,2.9 1.8,6 3.2,10.8 11,50.9 9.5,129.8 -27.4,181.1 -35.1,54.2 -112.3,48.4 -163.7,40.4 -6.6,-1.1 -10.7,-1.8 -14.8,-2.5 -34,-7.4 -63.7,-11.9 -84.9,-14.3 -16,-1.9 -25.5,0.3 -30.4,1.7 2,-5.8 4.1,-13.3 4.5,-24.8 -2.8,-21.8 -8,-53.1 -17.1,-85.4 -0.4,-3.7 -0.8,-7.4 -1.4,-13.3" />
    </g>
    <g
       transform="matrix(0.03377381,0,0,-0.03377381,-484.84013,1440.6649)"
       id="g242">
      <path
         id="path244"
         style="fill:#f2d3ad;fill-opacity:1;fill-rule:nonzero;stroke:none"
         d="m 16263.3,15420.3 c -20.5,55.8 -86.7,59.3 -133.3,58.5 -6.5,-0.6 -10.5,-0.9 -14.5,-1.2 -33.4,-3.2 -60.3,-9.8 -79.8,-15.1 -7.5,-3.4 -14.8,-5.2 -20.7,-6.4 -1.7,-5.3 -3.5,-10.9 -6.4,-18.1 -8.3,-17.7 -15.3,-45.1 -21.8,-78.2 -0.6,-3.9 -2,-7.8 -2.8,-14.4 -1.8,-23.6 -4.4,-54.9 -3.8,-86.4 1.3,-31.8 4.8,-63.2 8.8,-86.6 1.5,-4.9 2.5,-8 3.3,-11 8.9,-32 20,-57.4 30.4,-73.8 2.2,-4.2 3.7,-6.8 5.5,-10.4 4.3,1.3 8.6,2.6 12.9,3.7 42.5,11.9 85.2,23.8 128,35.8 36,9.7 63.7,19.7 88,33.6 1.8,4.8 3.1,9.5 6,15.5 8.1,18.5 19.4,44 25.8,76.3 0.7,3 2.1,5.8 2.6,11 8.5,46.4 0.9,112 -28.2,167.2" />
    </g>
    <g
       transform="matrix(0.0357287,0,0,-0.0357287,-484.84013,1440.6649)"
       id="g246">
      <path
         id="path248"
         style="fill:#e6aa5f;fill-opacity:1;fill-rule:nonzero;stroke:none"
         d="m 15575.6,16057.5 c 1.5,-0.5 3,-1 5.5,-1.8 16.4,-1.7 35.5,-3.8 55.9,-6 20,-4.4 41.8,-1.6 63.6,-0.2 21.5,1.8 43.2,0.7 63.2,3.2 -16.4,-2 -34.3,-1.9 -51.9,-2.7 -46.3,-0.2 -94,5.2 -129.2,23.6 -36.2,18.7 -76.2,105.4 -96.7,226.4 3.7,-76.9 16.4,-153.1 37.2,-227.2 2,-0.8 5.8,-2.2 12.9,-4.2 11.8,-3.3 24.1,-6.8 39.5,-11.1" />
    </g>
    <g
       transform="matrix(0.03267854,0,0,-0.03267854,-484.84013,1440.6649)"
       id="g250">
      <path
         id="path252"
         style="fill:#e6aa5f;fill-opacity:1;fill-rule:nonzero;stroke:none"
         d="m 16288.3,15979 c 0,0 4.6,-6.6 11.7,-15.9 -7.1,9.2 -11.7,15.9 -11.7,15.9" />
    </g>
    <g
       transform="matrix(0.03245444,0,0,-0.03245444,-484.84013,1440.6649)"
       id="g254">
      <path
         id="path256"
         style="fill:#e6aa5f;fill-opacity:1;fill-rule:nonzero;stroke:none"
         d="m 15326.8,16300 c -58.5,-35.9 -100.4,-90.1 -126.1,-151.6 25.7,61.5 67.6,115.7 126.1,151.6" />
    </g>
    <g
       transform="matrix(0.03097315,0,0,-0.03097315,-484.84013,1440.6649)"
       id="g258">
      <path
         id="path260"
         style="fill:#e6aa5f;fill-opacity:1;fill-rule:nonzero;stroke:none"
         d="m 16226.2,16297 c -4.7,0.8 -9.5,2.2 -14.2,3 l 3.7,-1.6 c 0,0 3.9,-0.5 10.4,-1.4 0,0 0,0 0.1,0" />
    </g>
    <g
       transform="matrix(0.04450213,0,0,-0.04450213,-484.84013,1440.6649)"
       id="g262">
      <path
         id="path264"
         style="fill:#e6aa5f;fill-opacity:1;fill-rule:nonzero;stroke:none"
         d="m 13833.4,10246.2 c -9.6,-57.7 -37.1,-109.5 -61.8,-143.8 -2.4,-3.6 -3.9,-5.9 -5.6,-7.9 -17.3,-22.4 -34.1,-38.6 -45.7,-49.9 -12,-10.9 -17.9,-17.8 -17.9,-17.8 0,0 6,7 14.7,20.4 8.8,13.5 19.2,33.9 30.7,58.3 1,2.3 2,4.7 3.7,8.4 16.8,37 33.1,87.9 42.7,139 8.7,50.7 6.8,102 -2.7,139.9 -1.2,5 -1.7,8.2 -3,11 -8,24.9 -17,46.1 -26.2,59.1 -9.1,13.1 -15.1,20.1 -15.1,20.1 0,0 6.1,-6.7 18.3,-17.4 11.5,-11.2 28.7,-28 43.1,-53.2 1.9,-2.9 3.5,-6 5.7,-11.2 19.8,-38.3 29.6,-98.3 19.1,-155 z m -1164.2,-364.79 c -5.8,15.49 -13.7,36.72 -23.3,62.36 -3.7,10.15 -7.6,20.77 -11.6,31.72 -5.3,14.06 -7.6,29.21 -11.8,44.61 -7.3,30.8 -14.9,63.4 -22.8,97.1 -12.5,67.7 -24,140.6 -33.3,212.9 -10.5,72 -15.7,146.2 -21,214.9 -2.6,34.4 -4.7,67.7 -3,99.5 0.8,27.3 1.6,53.2 2.3,77 1.2,27.3 2.2,50.2 2.8,66.5 0.3,14.6 0.4,25.1 0.4,25.1 0,0 0.9,-10.5 2.1,-25.1 1.9,-16.2 4.5,-38.9 7.6,-66.1 2.4,-23.5 5,-49.1 7.7,-76.1 2.3,-31.3 6.4,-64.1 12.1,-97.8 9,-67.8 18.7,-140.2 28.4,-212.5 9.9,-72.9 18.2,-145.2 25.3,-213.4 4.7,-33.8 9.1,-66.5 13.4,-97.5 2.4,-15.4 3,-30.94 6.8,-45.08 2.4,-11.2 4.7,-22.03 6.9,-32.44 5.5,-26.68 10,-48.76 13.3,-64.91 3.2,-15.74 5.8,-24.51 5.8,-24.51 0,0 -2.4,8.81 -8.1,23.75 z m -424.5,326.69 c 1,5.9 2.6,9.4 4.1,13.3 -0.8,3.2 -2.1,10.8 1.1,24.9 5.9,16.1 17.9,40 43.8,57.9 3.2,2 6.4,4 11.6,7.3 9.7,7.6 24.5,9.7 38.3,14.1 15.5,-0.1 32.5,1.3 48.1,-8.1 17.9,-5.6 26.3,-21.4 38.6,-33.7 6.7,-14.5 15.2,-28.9 19.9,-44.5 17.5,-68.1 -20.5,-131.4 -54.8,-161.4 -3.5,-3.1 -5.6,-5 -7.7,-6.9 -10.8,-10.4 -23.5,-16.1 -34.4,-21.2 -10.5,-5.8 -20.6,-8.8 -29.5,-9.1 -7.6,-0.8 -12.9,-0.4 -17.4,-0.1 0.1,-1.3 0.2,-3.8 0.2,-3.8 0,0 -2.4,1.4 -6.3,4.3 -1.3,0.3 -3.7,0.7 -3.7,0.7 0,0 1.3,1.1 1.5,1.4 -3.4,2.8 -7.2,6 -11.8,11.2 -38.3,37.5 -44.8,112 -45.5,123.7 0.9,11.7 2.6,21.8 3.9,30 z m 1462.6,497.9 c -2.9,-5.2 -4.9,-6.1 -7.5,-9.2 -18.7,-20.2 -34.3,-36.8 -45.6,-49 -10,-11.4 -16.5,-18.8 -16.5,-18.8 0,0 5.9,8 14.8,20.3 9.3,13.4 22,31.9 37.3,54.3 2,3.4 3.8,4.3 6,9.8 l 9.6,21.1 c 6.6,14.1 13.4,28.7 20.5,43.7 16.1,28.8 22.9,63.8 34.3,97.7 12.7,33.6 17,71 24.5,107.9 8.9,36.8 11.9,75.1 15.2,113.4 4.6,38.2 7.5,76.5 6.5,114.6 -0.7,37.9 3.7,75.4 -0.1,111.6 -2,36.3 -3.8,71.4 -5.5,104.7 -0.1,16.8 -3.3,32.8 -4.8,48.4 -1.2,11 -2.4,21.7 -3.5,31.9 -2.9,27.1 -5.4,49.8 -7.1,65.9 -2,14.7 -3.4,25 -3.4,25 0,0 2.3,-10.1 5.7,-24.5 4.1,-15.7 10,-37.9 17,-64.3 2.6,-10 5.3,-20.4 8.1,-31.3 3.7,-15.5 8.3,-31.4 10.3,-48.1 4.8,-33.6 9.8,-68.9 15,-105.5 6.5,-36.6 4.2,-75.2 6.1,-114 2.3,-39 0.1,-78.6 -4.6,-118.1 -3.3,-39.6 -7.1,-79.1 -17.6,-117.1 -9.2,-38.1 -16,-76.1 -31.8,-110.4 -15.1,-34.2 -24.2,-69.4 -44.5,-97.6 -8.9,-14.6 -17.5,-28.8 -25.9,-42.6 l -12.5,-19.8 z m 2556.6,-1108.85 c -218.8,49.35 -1131.3,256.82 -1402.1,344.23 -308.5,99.52 -779.6,185.82 -922.2,215.62 -142.7,29.9 -69.7,318.5 -159.2,417.2 -89.6,98.7 -60.6,151.6 3.2,156.7 63.9,5.1 504.3,0 872.5,33.2 0,0 -763,19.9 -811,33.2 -48,13.2 -38.7,114.8 0,199 38.7,84.2 107.7,225.6 300.1,225.6 192.4,0 338.4,-9.9 222.3,10 -116.1,19.9 -325.1,96.1 -417.9,175.7 -92.9,79.7 -142.5,274.2 -88.5,214.5 -89.9,86.5 -147.3,199.3 -187.5,310.1 -40.8,111.1 -69.4,221.9 -118.3,319.6 -12.4,24.2 -26.8,46.6 -39.9,70.1 -14.7,23.3 -32.2,46.4 -48,69.5 -32.5,46.4 -64.8,92.7 -96.8,138.6 -64.6,92 -125.8,186.5 -180.2,282.9 -25.2,49.7 -52,97.7 -75.1,147.7 -22.6,50.5 -39.9,102.8 -54.5,155.3 -27.5,105.4 -37.6,213 -31.6,316 4.6,102.9 26,201.4 38.9,291.1 3,22.2 4.7,43.8 4.4,63.5 -0.8,9.5 -1.5,18.9 -3.7,26.8 -0.3,4 -2.9,8.3 -3.3,10.1 l -0.5,1.7 c -1,4.9 -4.1,7.7 -5.6,11.8 -11.1,17.2 -33.4,28.4 -55.5,36.8 13.6,-5.2 26.3,-12.1 37.4,-20.2 20.9,-88.7 -116.3,-377.5 -77.1,-627.9 43.1,-275.4 298.6,-709.9 481.1,-925.6 182.5,-215.6 139.3,-384.8 296.1,-729.8 156.8,-345 -90.4,-862.5 -160.1,-975.3 0,0 169.2,-26.5 188.7,-202.4 19.5,-175.8 -122.4,-414.61 -464,-480.96 -341.7,-66.39 -597.2,53.04 -631.7,271.36 -34.5,218.3 -2,421.9 117.4,363.9 119.5,-58 192.5,-58 325.2,-63.8 -63.1,-5.8 -276.8,108.5 -401.4,359.9 -124.7,251.4 -199.3,723.9 -165.9,856.7 33.4,132.8 238.8,278.6 222.2,500.9 -16.6,222.3 -191.5,485.2 -201.5,557.4 -10,72.1 94.5,101.9 169.2,142.6 -8.3,-3.3 -19.1,-7.6 -31,-12.4 -1.5,-0.6 -3.1,-1.1 -5.7,-2.1 -12.9,-4.5 -27.8,-9.7 -43.8,-15.2 -16.4,-3.9 -35,-3.9 -53.1,-5.3 -18.5,-1.4 -37,-2.5 -53.9,3.1 -17,4.1 -32.9,7.4 -45.7,12 -2,1 -3.2,1.6 -4.3,2.2 -11.6,6.3 -20.8,11.4 -29.6,16.3 -5,2.8 -7.9,4.1 -9.5,4.8 7.6,-27.1 16,-54 25.9,-80.4 31.8,-89.9 77.2,-171.9 117,-260.3 38.3,-87.6 70.1,-176.8 82.8,-267.5 6.4,-45.4 8,-90.8 0.8,-135.4 -4,-19.1 -7.9,-39 -15.1,-58.1 -0.8,-2.4 -1.6,-4 -2.4,-6.4 -6.4,-14.3 -7.1,-16.7 -11.9,-24.6 -15.9,-27.9 -33.5,-47 -48.6,-63.7 -4.8,-5.6 -9.5,-10.4 -14.3,-15.2 -10.4,-11.1 -19.9,-19.9 -30.3,-27 -28.7,-20.7 -46.2,-25.5 -46.2,-25.5 0,0 3.2,14.3 11.2,33.4 -19.5,-5.3 -39.4,-9.6 -59.4,-13.7 -34.5,-16.6 -73.5,-30.9 -108.6,-32.6 -18.4,-1 -40.6,-4.7 -64,-9.6 41.2,-8.6 82.4,-24.3 120.7,-56.5 30.8,-24.9 51.8,-62 63.1,-98.4 12.7,-37.1 14.5,-73.4 15.7,-111.1 0,-3.6 -0.9,-7.5 -1.1,-11.1 2.5,15.5 4.2,31.4 8.2,46.2 6.1,25.9 11.9,51.1 17.6,75.5 2.4,10.7 8.7,26.9 10.2,31.7 l 3.5,10 c 9.2,25.8 16.9,47.3 22.3,62.6 4.8,14.6 7.8,23.8 7.8,23.8 0,0 -2.4,-9.4 -6.3,-24.3 -3.5,-15.7 -8.7,-38 -14.8,-64.6 -3.1,-13.6 -6.3,-27.7 -9.6,-42.3 -3.5,-24.5 -7.1,-49.8 -10.9,-75.8 -9.9,-51.5 -8.5,-107.3 -12.4,-163.8 -0.5,-80 6.9,-163.4 21.1,-246.6 8.2,-16.9 15.1,-34.3 19.8,-52.2 7.1,-28.5 10.9,-57.7 11.3,-87.3 28.8,-105.5 68.4,-207.6 115.5,-299.2 26.3,-50.6 54,-98.4 83.2,-141.9 15.2,-21.2 28.7,-43.2 44.6,-62 7.6,-9.7 15.1,-19.3 22.5,-28.7 5.2,-6.7 5.5,-6.3 8.3,-9.8 18.1,-20.4 32.9,-37.8 45.2,-48.1 11.6,-10.3 18.8,-16.7 18.8,-16.7 0,0 -7.5,5.9 -19.8,15.6 -13.4,9 -30.2,24.5 -50.8,43 -3.2,3.1 -3.6,2.8 -9.4,9 -8.2,8.8 -16.7,17.7 -25.2,26.9 -17.7,17.9 -33.2,38.6 -50.2,59.1 -33,41.9 -64.4,88.7 -94,138.9 -40,68.3 -74.5,144.2 -102.2,223.5 -2.4,-7.5 -3.7,-15 -6.8,-22.7 -27.3,-65.4 -86.1,-109.1 -143.4,-135.2 31.2,-12.2 66.8,-39.3 89.3,-80.9 3.4,-7.1 6.9,-14.4 10.5,-21.9 5,-10.1 7.6,-22.2 11.5,-33.6 8.3,-23 9.5,-47.9 11.1,-72.9 0.6,-25.1 -2,-50.9 -7.4,-77.2 -9.6,-24.9 -18.3,-56.3 -35.7,-76.6 -31.3,-47.4 -69.8,-80.7 -108.4,-116.2 139.9,0.5 155.4,-178.2 159.8,-201.7 4.9,-48.3 -9.2,-101.7 -39.9,-143 -64.1,-80.14 -150.6,-120.6 -227.7,-169.19 -80.3,-51.62 -172,-86.07 -258.3,-110.03 -43.8,-9.36 -85.4,-20.56 -127.3,-23 -39.8,-5.45 -84.2,-5.24 -108.5,-5.07 -55.5,-0.76 -101.2,7.38 -132.6,10.23 -31.6,3.95 -51.2,16.79 -51.2,16.79 0,0 16.9,14.98 49.1,22.53 32.4,8.52 78.3,14.48 132.3,18.89 23.2,2.26 66.4,4.03 101.4,10.4 37.4,3.32 76.4,15.07 116.8,24.39 79.2,23.79 162,54.72 237.2,103.06 78,48.7 162.1,91.2 208,147.1 21.9,28.4 30.1,59.4 29.3,90 11.7,36.4 -29.2,169.4 -113,163.7 -5.4,4.8 -10.6,8 -15.5,10.9 -7,-6 -14,-11.9 -21.1,-17.9 l -66.4,-46.3 c -91,-58.5 -191.5,-101.2 -287.5,-129.3 -48.9,-10.9 -94.6,-26.6 -140.9,-31.5 -22.8,-3.3 -45,-6.5 -66.5,-9.5 -5.9,-0.7 -12.3,-1.7 -18.3,-2.3 -2.1,-0.5 -4,-0.9 -6.3,-1.3 -32,-4.1 -76.9,-5.5 -131.6,-6.4 -5.2,0.1 -10.4,0.1 -19,0.2 -57.1,0.4 -125,1.1 -198.5,7.7 -23.6,2.3 -47.9,5.7 -72.5,10 -1.7,-3.1 -3.4,-6 -5.3,-9.4 1.9,3.2 3.4,6 5.1,8.9 0,0 231.8,-57 402.7,-45.4 170.8,11.6 294.3,64.6 383.5,104.4 89.2,39.9 118.6,22.6 76.4,1.7 -13.4,-6.7 -19,-25.2 -21.4,-48.1 -2,3.1 -3.4,7.2 -5.7,9.8 13.2,-14.4 21.7,-38.8 26.8,-63.5 0.8,-12.8 0.1,-25.8 -1.5,-37.6 -0.6,-11.9 -6.5,-22.5 -10.5,-31.2 -4.4,-8.7 -9.2,-15.3 -11.5,-20.1 -2.8,-4.6 -3.2,-7.5 -3.2,-7.5 -16.7,-44 -122.8,-108.66 -338.4,-138.54 -215.6,-29.84 -401.2,-64.12 -464.4,0.04 -62.5,63.49 -67.9,163.1 -61.6,209.6 3.2,11.3 6.8,21.8 10.7,31.3 -9.6,-22.7 -17.5,-50.9 -20.8,-84 l -0.4,-18.1 -0.1,-2.4 c 0.1,-2.3 -1,-9.29 -0.2,-13.82 1.1,-10.16 0.6,-20.52 2.8,-30.59 3.5,-20.27 9.1,-40.46 17.9,-59.3 17.3,-37.93 45.6,-70.92 81.9,-94.58 18,-12.22 38.5,-20.69 59.3,-29.17 24,-6.92 48.1,-13.89 72.4,-20.9 48.6,-14.01 97.8,-28.28 147.7,-42.72 51,-9.48 102.6,-19.13 154.8,-28.83 51.9,-11.75 105.5,-16.15 159.6,-20.98 54,-3.94 108.2,-13.26 163.6,-11.83 444,-19.47 911.1,88.33 1371.1,214.6 115.4,31.22 232.4,60.81 350.9,85.15 60.8,8.64 120.1,21.06 183.6,20.77 l 46.8,1.47 48.4,-6.63 48,-7.26 42.8,-10.28 c 227.8,-55.4 452.4,-109.4 671.7,-157.45 218.6,-50.32 430,-98.95 630.5,-145.03 100,-24.59 197.8,-43.73 291.6,-70.92 58.7,-16.28 115.3,-32.06 169.8,-47.17 52.4,-17.29 95.5,-33.19 124.3,-48.59 14,-7.72 24.4,-15.32 31.5,-21.11 5,4.83 9.7,9.32 14.8,14.23 29.1,31.39 62.4,61.22 91,96.6 20.9,22.62 40.2,47.54 58.5,73.39 -11.5,-16.11 -23.6,-31.76 -36.1,-46.7" />
    </g>
    <g
       transform="matrix(0.03829238,0,0,-0.03829238,-484.84013,1440.6649)"
       id="g266">
      <path
         id="path268"
         style="fill:#e6aa5f;fill-opacity:1;fill-rule:nonzero;stroke:none"
         d="m 16297.2,13368 c 0.9,-0.5 1.9,-0.9 2.8,-1.5 -0.9,0.6 -1.9,1 -2.8,1.5" />
    </g>
    <g
       transform="matrix(0.04467488,0,0,-0.04467488,-484.84013,1440.6649)"
       id="g270">
      <path
         id="path272"
         style="fill:#e6aa5f;fill-opacity:1;fill-rule:nonzero;stroke:none"
         d="m 16300,9711.69 c -6.1,-12.42 -12.9,-24.33 -19.7,-36.33 6.7,12.04 13.6,23.87 19.7,36.33" />
    </g>
    <g
       transform="matrix(0.04459215,0,0,-0.04459215,-484.84013,1440.6649)"
       id="g274">
      <path
         id="path276"
         style="fill:#e6aa5f;fill-opacity:1;fill-rule:nonzero;stroke:none"
         d="m 16300,9674.51 c -9.4,-15.58 -19.3,-30.79 -29.7,-45.48 10.4,14.78 20.4,29.77 29.7,45.48" />
    </g>
    <g
       transform="matrix(0.03391948,0,0,-0.03391948,-484.84013,1440.6649)"
       id="g278">
      <path
         id="path280"
         style="fill:#f2d3ad;fill-opacity:1;fill-rule:nonzero;stroke:none"
         d="m 16144.6,13184.9 c 4.3,3.6 8.9,7.6 15.5,11.8 8.9,4.5 18.8,11.1 29.2,20.1 10.8,8.3 23.8,16.1 34.2,29.1 2.3,2.2 4.5,4.4 8.1,7.9 35.8,36.5 68.4,103.8 52.5,166.6 -16.7,69.4 -73.6,94.4 -118.5,67.3 -5.3,-2.8 -8.6,-4.6 -11.9,-6.3 -26.9,-15.8 -46.2,-35.3 -59,-50.3 -3.9,-6 -8,-9.9 -12,-13.9 2.9,-5.7 6.2,-13.9 8.1,-24 1.9,-10.8 4,-23.2 6.2,-36.1 4.2,-13.5 0.2,-77.4 44.4,-154 1.9,-7.4 2.5,-12.7 3.2,-18.2" />
    </g>
    <g
       transform="matrix(0.03037014,0,0,-0.03037014,-484.84013,1440.6649)"
       id="g282">
      <path
         id="path284"
         style="fill:#e6aa5f;fill-opacity:1;fill-rule:nonzero;stroke:none"
         d="m 16283.2,15580.1 c 5.5,11.7 11.1,22.7 16.8,33.2 -5.7,-10.5 -11.3,-21.4 -16.8,-33.2" />
    </g>
    <g
       transform="matrix(0.03044334,0,0,-0.03044334,-484.84013,1440.6649)"
       id="g286">
      <path
         id="path288"
         style="fill:#e6aa5f;fill-opacity:1;fill-rule:nonzero;stroke:none"
         d="m 16300,15634.3 c -4.2,-4.8 -8.2,-10.5 -12.2,-16.1 4,5.6 8,11.3 12.2,16.1" />
    </g>
    <g
       transform="matrix(0.03792168,0,0,-0.03792168,-484.84013,1440.6649)"
       id="g290">
      <path
         id="path292"
         style="fill:#e6aa5f;fill-opacity:1;fill-rule:nonzero;stroke:none"
         d="m 16300,13610 c -11.1,9.8 -22.9,18.5 -33.6,28.9 8.9,-9.9 20.4,-19.3 33.1,-28.5 0.2,-0.1 0.3,-0.2 0.5,-0.4" />
    </g>
    <g
       transform="matrix(0.03040525,0,0,-0.03040525,-484.84013,1440.6649)"
       id="g294">
      <path
         id="path296"
         style="fill:#e6aa5f;fill-opacity:1;fill-rule:nonzero;stroke:none"
         d="m 16300,15626.5 c -5.3,-7.9 -10.5,-16.6 -15.7,-25.6 5.2,9 10.4,17.6 15.7,25.6" />
    </g>
    <g
       transform="matrix(0.03399903,0,0,-0.03399903,-484.84013,1440.6649)"
       id="g298">
      <path
         id="path300"
         style="fill:#e6aa5f;fill-opacity:1;fill-rule:nonzero;stroke:none"
         d="m 15768.2,13824.7 c -1.4,6.4 -2.2,10.4 -3.1,14.3 -2.3,16.9 -6.2,31.8 -11.4,44.8 -3.9,13.7 -8,25.9 -14.2,34.1 -10.6,17.8 -18.7,27.1 -18.7,27.1 0,0 8.1,-8.3 25.5,-21.4 9.6,-6.1 18.5,-15.8 28.1,-28.1 10.8,-11.6 20.9,-26.3 27.9,-44.2 1.9,-4.3 3.8,-8.6 6.8,-15.5 8.4,-15.9 12.8,-39.2 16,-62.3 1,-23.4 0.3,-47.1 -4.7,-64.1 -1,-5.7 -1.5,-9.2 -2,-12.7 -6.7,-36.8 -18.2,-65.7 -27.2,-85.3 -9.1,-19.6 -11.8,-31.1 -11.8,-31.1 0,0 2.9,11.8 3.4,32.9 0,21.3 0.3,51.3 -2.6,86.1 -0.1,3.2 -0.2,6.5 -0.4,12 -0.9,16.1 -6.8,36.7 -6.6,57.5 -3.1,20 -4.1,40.5 -5,55.9 z m -613.3,-480.4 c 11.2,-0.7 18,-1.1 24.8,-1.5 3.7,-0.4 7.1,-0.8 10.7,-1.1 34.4,4.5 73.8,9.7 116,12.8 26.5,-1 91.9,13.2 143.8,22.2 55.9,7.5 112.9,28.9 173,43.1 118.4,36.8 238.8,88.7 348.5,159.1 l 80.1,56 0.2,0.2 c -5.6,2.1 -13.5,5.7 -24.4,13.2 -10.4,6 -18.7,16.8 -27.8,29.8 -10.3,12.5 -18,28.4 -24.8,46.6 -1.3,3.4 -2.6,6.8 -4.7,12.5 -6.5,13.5 -11.6,32.4 -15.2,51.7 -2.2,18.9 -3.6,37.9 -2.2,52.2 0.1,7.1 0.1,11.6 0.1,16 -0.6,36.9 5.1,66.8 8.8,87.8 3.8,20.8 13.1,32.7 13.1,32.7 0,0 0.7,-1.3 0.8,-1.4 -1.4,6.5 -2.1,16.2 2.5,28.6 7.4,23.4 29.5,50 62.1,71.6 4,2.5 8,5 14.4,9.1 33.2,22.4 94.7,38.9 152.7,18.5 63.2,-22.6 86.4,-89.3 91.2,-127.1 0.8,-2.8 0.8,-4.2 1.2,-6.3 0.2,52.1 -12,101.8 -27.2,131.4 -24.4,56.8 -61.1,87.6 -95,108.1 -5,3.3 -9.3,6.1 -13.9,9.1 -22,-7.5 -44,-14.4 -65.1,-20.7 -36.4,-12.6 -72.9,-21.7 -108.9,-36.4 -71.9,-27.8 -143.2,-61.1 -217.3,-86.9 -72,-29.5 -151.9,-39.9 -222.7,-53.1 -35.1,-2.9 -69.1,-5.7 -102,-8.4 -16.5,-1.2 -32.9,-2.4 -48.8,-3.6 -10.3,-0.5 -20.4,-0.9 -30.2,-1.4 -37.2,0.3 -70.1,-3.4 -101.1,2.5 -1.2,0.2 -2.1,0.5 -3.3,0.7 -0.6,-0.1 -1.1,-0.2 -1.8,-0.3 -42.8,-5.4 -100,-2.9 -171.1,-1.2 -46.9,1.3 -97.8,2.7 -151.6,4.2 -8.3,0.1 -17.4,1.1 -26,1.5 0.2,0 0.4,-0.1 0.6,-0.1 178.5,-22.6 397.4,-46.1 491.6,-38.4 171.5,14.1 350.5,88.2 419.5,94.6 69.1,6.3 -72.1,-89.2 -104.7,-104.4 -32.5,-15.2 40.4,-59 51.1,-189.1 10.7,-130.1 -35.8,-236.5 -142.2,-282 -106.4,-45.6 -345.3,-99.9 -586.2,-80.3 -241,19.5 -425.7,75.4 -475.5,143.3 -49.1,66.8 -52.2,297.4 -23,356.9 -3.9,-8.3 -7.8,-16.3 -11.4,-25.2 -3.1,-6.8 -6.2,-13.8 -9.2,-26.1 -19.3,-62.6 -25.8,-143 -9.4,-224.2 16.4,-80.4 60,-161.5 128.6,-204 72.1,-39.1 170.5,-61.3 259.3,-71.6 90.5,-11.1 176.9,-16.5 252,-21.2" />
    </g>
    <g
       transform="matrix(0.03084896,0,0,-0.03084896,-484.84013,1440.6649)"
       id="g302">
      <path
         id="path304"
         style="fill:#e6aa5f;fill-opacity:1;fill-rule:nonzero;stroke:none"
         d="m 16300,14621.3 c -6.4,-10.4 -12.5,-23 -18.3,-36.6 5.7,13.8 11.9,26.2 18.3,36.6" />
    </g>
    <g
       transform="matrix(0.03395029,0,0,-0.03395029,-484.84013,1440.6649)"
       id="g306">
      <path
         id="path308"
         style="fill:#f2d3ad;fill-opacity:1;fill-rule:nonzero;stroke:none"
         d="m 16278.7,13987.4 c -8.7,34.4 -30.2,75.5 -66.5,88.1 -37.8,12.6 -81.3,4.6 -113.2,-10.7 -5.7,-3 -9.2,-4.9 -12.6,-6.8 -28.1,-16 -51.8,-31.2 -62.8,-45.8 -11,-11.9 -18.7,-20.8 -21,-22.8 2.7,-5.6 5.9,-13.8 7.7,-24.8 3.9,-21 7.6,-50.9 10.5,-85.7 0.2,-4.2 0.5,-8.5 1,-15.3 3.8,-12.9 5.9,-30.1 7.8,-47.3 4.2,-16.6 4.3,-34.3 6.3,-47.1 1.5,-4.9 2.5,-7.9 3.5,-10.8 4,-16.3 8.6,-30.8 14.9,-42.5 5.3,-12.4 9.4,-23.9 15.2,-32 5.9,-10.8 8.9,-19.1 10.9,-24.9 l 69,57.8 c 48.5,42.7 99.1,87 128.9,131.3 8.7,10.3 15.8,21.7 21.7,33.6 -1.3,4.1 -2.5,7 -3.6,12.1 -4.2,22.6 -9.1,49.4 -15,82.5 -0.5,3.1 -1,6.3 -2.7,11.1" />
    </g>
    <g
       transform="matrix(0.03750318,0,0,-0.03750318,-484.84013,1440.6649)"
       id="g310">
      <path
         id="path312"
         style="fill:#fcefde;fill-opacity:1;fill-rule:nonzero;stroke:none"
         d="m 15131,15685.9 c -22.9,248 78.5,614.1 -23.4,566.9 -56.7,-26.3 -283,-334.7 -243.6,-633.8 39.4,-299.2 290,-181.1 267,66.9" />
    </g>
    <g
       transform="matrix(0.03524987,0,0,-0.03524987,-484.84013,1440.6649)"
       id="g314">
      <path
         id="path316"
         style="fill:#fcefde;fill-opacity:1;fill-rule:nonzero;stroke:none"
         d="m 16195.3,15222.7 c -4.2,-12.6 104.7,150.9 41.9,502.6 -62.8,351.9 -154.9,418.9 -188.5,414.7 -55.9,-7 67,-201.1 117.3,-469.1 50.2,-268 33.5,-435.6 29.3,-448.2" />
    </g>
    <g
       transform="matrix(0.0358568,0,0,-0.0358568,-484.84013,1440.6649)"
       id="g318">
      <path
         id="path320"
         style="fill:#fcefde;fill-opacity:1;fill-rule:nonzero;stroke:none"
         d="m 15884.2,14662.5 c -72.9,-99.9 -206.9,-376.7 -82.9,-829.6 124,-453 408.1,-468.8 453.4,144.3 45.3,613.2 -242.9,860.3 -370.5,685.3" />
    </g>
    <g
       transform="matrix(0.03575951,0,0,-0.03575951,-484.84013,1440.6649)"
       id="g322">
      <path
         id="path324"
         style="fill:#fcefde;fill-opacity:1;fill-rule:nonzero;stroke:none"
         d="m 16129.7,12950.2 c -108.8,91.5 -309.6,-21 -192,-138.6 117.7,-117.7 362.3,-4.6 192,138.6" />
    </g>
    <g
       transform="matrix(0.0444067,0,0,-0.0444067,-484.84013,1440.6649)"
       id="g326">
      <path
         id="path328"
         style="fill:#fcefde;fill-opacity:1;fill-rule:nonzero;stroke:none"
         d="m 14531.4,11246 c 229.4,-153 1303.2,-192.8 1768.6,59.8 -761.3,-146.3 -1768.6,-59.8 -1768.6,-59.8" />
    </g>
    <g
       transform="matrix(0.03238384,0,0,-0.03238384,-484.84013,1440.6649)"
       id="g330">
      <path
         id="path332"
         style="fill:#fcefde;fill-opacity:1;fill-rule:nonzero;stroke:none"
         d="m 15274,15929.5 c 82,-134.5 24,94.5 51.3,168 27.3,73.6 75.2,202.5 75.2,202.5 -37.6,-19.5 -208.5,-235.9 -126.5,-370.5" />
    </g>
    <g
       transform="matrix(0.03083047,0,0,-0.03083047,-484.84013,1440.6649)"
       id="g334">
      <path
         id="path336"
         style="fill:#fcefde;fill-opacity:1;fill-rule:nonzero;stroke:none"
         d="m 15979,16005.5 c 14.4,95.2 73.6,294.5 34.1,271.1 -58.2,-34.4 -134.7,-269.3 -79,-377 55.6,-107.8 30.5,10.7 44.9,105.9" />
    </g>
    <g
       transform="matrix(0.03054176,0,0,-0.03054176,-484.84013,1440.6649)"
       id="g338">
      <path
         id="path340"
         style="fill:#fcefde;fill-opacity:1;fill-rule:nonzero;stroke:none"
         d="m 16267.7,15355.6 c 19.4,72.4 32.3,206.8 7.3,186 -46.7,-38.8 -94.3,-314.2 -36.3,-391.5 58.1,-77.3 9.7,132.9 29,205.5" />
    </g>
    <g
       transform="matrix(0.03106111,0,0,-0.03106111,-484.84013,1440.6649)"
       id="g342">
      <path
         id="path344"
         style="fill:#fcefde;fill-opacity:1;fill-rule:nonzero;stroke:none"
         d="m 16250,14286.1 c -14.2,59.4 -16.6,190.1 -37.9,168.7 -18.8,-18.8 -7.2,-232.9 40.3,-282.8 47.6,-49.9 11.9,54.7 -2.4,114.1" />
    </g>
    <g
       transform="matrix(0.03259636,0,0,-0.03259636,-484.84013,1440.6649)"
       id="g346">
      <path
         id="path348"
         style="fill:#fcefde;fill-opacity:1;fill-rule:nonzero;stroke:none"
         d="m 16286.4,15928.4 c 13.6,73.3 -36.2,130.6 -134.6,135 -98.2,4.6 -316.7,56 -372.7,56.7 -172.1,2.3 253.6,-88.3 380.5,-127.5 126.8,-39 113.2,-137.5 126.8,-64.2" />
    </g>
    <g
       transform="matrix(0.03255547,0,0,-0.03255547,-484.84013,1440.6649)"
       id="g350">
      <path
         id="path352"
         style="fill:#fcefde;fill-opacity:1;fill-rule:nonzero;stroke:none"
         d="m 16286.4,15178.9 c 13.6,81.7 -70.3,133.8 -240.3,153.2 -170.1,19.3 -298.5,36.5 -376.4,30.5 -174.6,-13.6 446.7,-77.1 516.9,-142.8 70.4,-65.7 86.2,-122.5 99.8,-40.9" />
    </g>
    <g
       transform="matrix(0.03283615,0,0,-0.03283615,-484.84013,1440.6649)"
       id="g354">
      <path
         id="path356"
         style="fill:#fcefde;fill-opacity:1;fill-rule:nonzero;stroke:none"
         d="m 16023.5,14356.8 c 242.8,9 213.6,-54 245,-108.3 31.5,-54.2 11.3,58.8 -10.6,112.8 -21.9,53.9 -97.3,60.6 -317.6,44.9 -220.2,-15.8 -292.2,-8.9 -292.2,-8.9 -134.9,-11.3 132.7,-49.5 375.4,-40.5" />
    </g>
    <g
       transform="matrix(0.03304157,0,0,-0.03304157,-484.84013,1440.6649)"
       id="g358">
      <path
         id="path360"
         style="fill:#fcefde;fill-opacity:1;fill-rule:nonzero;stroke:none"
         d="m 16188.8,13601.8 c 111.2,44.7 57.9,64.2 -12.5,37.7 -70.3,-26.5 -328.3,-81.6 -321.7,-82.4 46.9,-5 222.9,0 334.2,44.7" />
    </g>
  </g>
</svg>
