<?xml version="1.0" encoding="UTF-8" standalone="no"?>
<svg
   xmlns:dc="http://purl.org/dc/elements/1.1/"
   xmlns:cc="http://creativecommons.org/ns#"
   xmlns:rdf="http://www.w3.org/1999/02/22-rdf-syntax-ns#"
   xmlns:svg="http://www.w3.org/2000/svg"
   xmlns="http://www.w3.org/2000/svg"
   version="1.1"
   id="svg5086"
   viewBox="0 0 250 250"
   height="250"
   width="250">
  <defs
     id="defs5088" />
  <metadata
     id="metadata5091">
    <rdf:RDF>
      <cc:Work
         rdf:about="">
        <dc:format>image/svg+xml</dc:format>
        <dc:type
           rdf:resource="http://purl.org/dc/dcmitype/StillImage" />
        <dc:title></dc:title>
      </cc:Work>
    </rdf:RDF>
  </metadata>
  <g
     transform="translate(0,-802.36216)"
     id="layer1">
    <g
       transform="matrix(0.03788258,0,0,0.03666905,-41.549076,431.04149)"
       id="g18">
      <path
         id="path20"
         style="fill:#fcd89d;fill-opacity:1;fill-rule:nonzero;stroke:none"
         d="m 6653.8,12835.1 c -8.28,-20.5 -20.46,-36.1 -29.43,-50.3 -2.96,-4.3 -4.78,-6.8 -6.56,-9.3 -19.27,-26.9 -38.05,-46.5 -49.84,-61.4 -11.97,-14.6 -17.49,-23.9 -17.49,-23.9 0,0 5.47,9.3 12.47,26.9 8.23,20 17.89,43.5 29.77,72.5 1.23,2.7 2.46,5.4 4.49,9.9 4.73,15.1 12.76,32.1 16.95,50.4 6.16,18.2 8.33,37.3 11.64,56.1 -0.3,18.6 0.54,37.2 -4.49,54.8 -1.58,18.9 -7.84,30 -15.13,45.7 -3.01,5.4 -4.83,8.7 -6.66,12 -15.72,27.8 -27.85,52.8 -35.98,70.2 -9.17,17.2 -8.92,28.6 -7.2,28.2 -2.17,0.2 -1.18,-11.2 12.33,-25 12.02,-14.4 32.92,-31.8 54.86,-56.3 2.56,-3 5.17,-6 9.41,-10.9 10.51,-10.8 25.88,-31.7 30.22,-53 8.38,-20.9 9.47,-45.2 9.27,-69.5 -3.25,-23.9 -8.68,-47.7 -18.63,-67.1 z m -85.33,-670.9 c -11.24,-31.1 -33.52,-53.1 -49.99,-67.7 -3.79,-3.5 -6.16,-5.6 -8.47,-7.8 -25.34,-22 -48.61,-36.2 -64.53,-46.8 -15.87,-10.5 -23.56,-18 -23.56,-18 0,0 7.64,7.5 18.73,23 13.11,18.3 27.5,38.4 45.35,63.3 1.77,2.4 3.55,4.9 6.36,8.8 10.69,17.4 24.2,40.3 32.58,62.1 5.23,10.9 6.56,21.7 8.73,32 1.38,10.5 -0.6,21 0.59,30.3 0.14,5.6 -0.79,9.2 -1.63,12.8 -5.77,29.7 -12.52,57.8 -13.85,77 -1.23,19.5 -3.35,29.7 -3.35,29.7 0,0 2.76,-10.6 10.15,-27.8 7.25,-17.4 24.3,-37.8 38.6,-69.3 1.97,-3.6 3.84,-7.3 5.22,-14.4 8.34,-21.2 13.61,-57.4 -0.93,-87.2 z m -106.43,-556.8 c -2.81,-13.1 -3.2,-28.4 -10.3,-41.1 -7,-12.7 -13.21,-26.8 -22.73,-36.1 -9.61,-9.2 -18.88,-17.3 -26.86,-23.9 -3.75,-3.9 -6.61,-5.5 -9.27,-7.3 -28.93,-18.5 -53.93,-29.8 -72.56,-35.6 -17.89,-6.8 -27.01,-12.4 -27.01,-12.4 0,0 9.21,5.6 23.26,18.5 14.69,12.1 33.57,31.4 54.23,54.2 2.12,2 4.39,3.8 6.9,7.8 4.68,7.7 10.2,16.2 16.46,24.8 6.12,8.7 8.58,19.3 14.54,28.3 5.57,9.1 5.48,20.2 9.42,29.5 4.39,9.3 2.61,19.9 5.13,28.2 0.59,5.8 0.93,9.3 1.28,12.9 -0.3,30.3 -0.25,57.7 -3.35,76.4 -2.27,18.8 -5.13,29.2 -5.13,29.2 0,0 3.4,-10.1 12.13,-27.2 9.36,-16.7 21.39,-41.8 29.97,-75.2 0.49,-4.2 0.98,-8.5 1.72,-15.3 1.09,-10.2 5.47,-22.3 2.17,-35.7 z m 62.06,2243.5 c 16.17,-10.1 39.93,-24.6 64.78,-47.2 3,-2.6 5.62,-6.1 10.15,-11.2 6.31,-7 13.11,-14.6 20.31,-22.7 5.28,-9.2 10.15,-19.4 15.18,-30.1 11.78,-20.4 15.13,-47.5 17.16,-73.3 -1.24,-13.4 -2.91,-26.9 -5.18,-39.8 -5.03,-11.9 -10.01,-23.5 -14.84,-34.8 -12.37,-20.2 -25.14,-38 -37.81,-50.6 -3.35,-3.8 -5.47,-6.2 -7.49,-8.6 -22.43,-24.2 -43.43,-41.3 -56.69,-54.9 -13.5,-13.2 -20.11,-21.7 -20.11,-21.7 0,0 6.46,8.5 15.63,25.2 10.5,18.6 23.07,40.9 38.5,68.2 1.52,2.5 3.05,5.2 5.57,9.3 8.97,14.8 16.21,32.8 24.15,50.9 2.81,9.1 5.72,18.6 8.63,28.2 0.64,9.7 1.43,19.4 2.91,29 -2.27,19.3 -2.42,39.2 -10.55,57.5 -2.96,9.3 -5.77,18.5 -8.53,27 -4.34,7.9 -8.43,15.4 -12.23,22.3 -3.05,5 -4.48,8.4 -6.7,11.4 -18.14,25.4 -33.47,47.6 -46.48,61.3 -12.87,13.2 -22.58,18.9 -22.58,18.9 0,0 13.75,-7.5 26.22,-14.3 z m 955.92,-643.4 c -22.13,36.6 -60.98,69.6 -79.02,82.6 -45.89,29.6 -91.84,45.4 -126.98,50.1 -6.16,1 -11.59,2.3 -17.06,3.6 -1.92,-0.6 -3.89,-1.3 -5.81,-1.8 -62.22,-16.7 -122.75,-25 -180.91,-30.8 -29.04,-2.5 -57.58,-4.7 -85.53,-6.1 -10.45,-0.3 -20.61,-0.6 -30.66,-1 -65.37,0.4 -119.29,4.3 -157.1,12.2 -37.66,8.4 -59.4,21.2 -59.4,21.2 0,0 21.29,13.5 58.61,23.3 37.41,9.3 90.65,15.1 153.94,21.7 9.72,0.8 19.62,1.5 29.73,2.4 26.82,2.4 54.22,4.8 82.07,7.3 55.17,6.3 111.85,15.3 166.52,31 54.22,15.3 108.6,38.8 140.29,75.9 33.47,39.3 56.39,96.5 63.99,154.5 17.54,117 -26.67,246.2 -129.9,310 -50.47,32.3 -111.65,52.1 -176.52,56.5 -65.61,5.8 -138.02,3.1 -206.84,5.3 -279.79,1.6 -562.05,-17.9 -830.21,-6.8 -67.29,4.1 -132.55,2.2 -198.02,11.1 -65.16,8.3 -128.61,20.1 -189.14,37 -60.53,16.9 -118.45,37.7 -172.58,63.4 -13.46,6.8 -27.01,12.6 -39.88,20.2 l -30.95,17.8 -21.65,15.1 c -56.88,39.3 -94.1,89.3 -108.64,129.6 -14.94,41.8 1.63,67.7 0.44,66.7 0,0 5.38,-4.9 12.28,-12.9 6.06,-8.1 17.3,-18.1 27.41,-30.9 21.98,-25.7 61.37,-54.6 112.68,-85.2 l 19.82,-11.5 27.85,-15 c 7.99,-4.5 16.71,-8.3 25.24,-12.2 -11.88,24.4 -21.89,52.5 -27.11,84.8 -1.19,10.6 -3.01,13.5 -3.7,31.1 -1.33,23.8 -1.53,48 0.54,72.2 3.8,48.3 11.93,97.4 25.29,145.8 25.68,97.3 66.06,193.8 112.79,290.1 51.51,101.7 98.88,209.8 130.13,321.9 -2.17,-1 -5.37,-2.7 -10.45,-5.9 -11.43,-6.9 -21.54,-13 -34.06,-20.7 -1.38,-0.6 -2.81,-1.4 -5.03,-2.6 -15.77,-6.1 -37.41,-13.8 -59.64,-19.1 -22.58,-1.9 -45.35,-2.2 -62.02,-1.1 -3.25,0 -5.27,1 -7.19,1.2 -13.81,3.9 -27.36,7.8 -38.6,11 -9.07,2.6 -14.34,3.3 -14.34,3.3 0,0 5.42,-0.6 14.93,-0.4 11.19,0.2 24.8,0.5 38.55,0.8 1.87,0.1 3.74,-0.5 6.8,0.1 16.02,3.7 36.92,6.6 57.97,8.2 20.76,5.5 42.1,8.6 58.61,10.6 2.37,0.7 3.8,1.1 5.23,1.6 13.85,3.6 24.84,6.4 37.56,9.8 6.11,1.5 9.56,2.7 11.73,3.5 25.64,92.3 40.57,187.3 36.09,284.2 -11.05,212.9 -69.8,436.3 -185.45,593.7 -56.79,74.1 -139.55,137.1 -215.66,185.5 -38.55,24.4 -78.28,41.9 -117.22,55.7 -18.14,4.6 -35.99,9.2 -53.54,13.8 -7.29,1.7 -14.64,1.4 -21.69,2.3 -28.54,3.1 -54.91,6.8 -78.62,3.6 -25.63,-9.8 -51.32,-23 -64.04,-42.9 -1.77,-4.9 -5.37,-8.1 -6.6,-13.8 l -0.64,-2 c -0.44,-2.1 -3.5,-7.1 -3.85,-11.9 -2.51,-9.2 -3.4,-20.2 -4.28,-31.4 -0.45,-23.2 1.57,-48.5 5.02,-74.7 15.24,-105.3 40.28,-221 45.75,-341.9 7.05,-120.9 -4.83,-247.4 -37.12,-371.3 -17.25,-61.5 -37.56,-123 -64.03,-182.4 -27.17,-58.6 -58.66,-115.1 -88.29,-173.4 -63.93,-113.3 -135.72,-224.2 -211.62,-332.3 -37.72,-53.9 -75.62,-108.3 -113.71,-162.9 -18.63,-27.1 -39.14,-54.3 -56.4,-81.5 -15.38,-27.6 -32.43,-54 -46.89,-82.4 -57.5,-114.8 -91.07,-244.9 -138.93,-375.5 -47.31,-130 -114.66,-262.6 -220.29,-364.2 -104.04,-101.7 -232.09,-172 -363.29,-220.9 -131.79,-48.8 -267.65,-78.8 -402.73,-99.2 -270.62,-39.8 -538.41,-42.5 -794.15,-33 -256.51,6.1 -504.47,11.8 -739.61,17.4 -117.64,0.6 -231.68,9.7 -342,18 -69.19,5.2 -136.09,10.2 -200.25,15 -61.92,7.7 -113.3,15.9 -149.97,26.5 4.38,-5.2 8.86,-10.3 13.43,-15.5 34.2,-38 65.66,-80.3 96.76,-124.7 59.6,-90.3 116.41,-191 150.98,-305.3 14.34,-57.7 28.54,-117.1 26.99,-179.3 3.33,-31.1 -2.97,-61.4 -6.94,-92 -5.48,-30.4 -5.62,-62.1 -15.62,-91.8 -26.71,-122.7 -85.76,-236.1 -142.25,-347.4 -57.31,-110.9 -113.53,-223.1 -129.97,-343.9 -14.02,-120.5 -12.43,-242.5 27.63,-351.8 41.42,-107.4 102.11,-203.6 174.81,-282.1 33.52,-41.6 72.61,-76.6 106.91,-113.5 5.98,-5.8 11.45,-11 17.34,-16.7 8.33,6.8 20.61,15.7 37.04,24.8 33.84,18 84.44,36.7 146.05,56.9 63.93,17.8 130.51,36.3 199.43,55.5 110.14,31.9 224.99,54.4 342.58,83.3 235.42,54.1 483.7,111.3 740.54,170.4 257.65,56.5 521.38,119.9 789.03,185 l 50.28,12.1 56.4,8.5 56.85,7.8 55.03,-1.8 c 74.48,0.4 144.17,-14.2 215.55,-24.4 139.32,-28.5 276.65,-63.3 412.23,-100 540.36,-148.3 1089.06,-274.9 1610.64,-252.1 65.07,-1.6 128.76,9.3 192.25,13.9 63.49,5.7 126.44,10.9 187.41,24.6 61.28,11.5 121.96,22.8 181.9,34 58.51,16.9 116.33,33.6 173.42,50.1 28.54,8.2 56.93,16.4 85.03,24.5 24.5,10 48.6,19.9 69.7,34.3 42.64,27.8 75.96,66.5 96.22,111.1 10.36,22.2 17.01,45.8 21.05,69.7 2.71,11.8 2.02,24 3.36,35.9 0.93,5.4 -0.35,13.6 -0.3,16.3 l -0.05,2.8 -0.44,21.4 c -5.82,55.4 -21.99,100.2 -39.88,129.4 -2.22,3.9 -4.14,7.3 -6.21,10.9 -28.79,-5 -57.38,-9 -85.23,-11.7 -86.32,-7.7 -166.03,-8.6 -233.16,-9.2 -10.01,-0.1 -16.17,-0.1 -22.24,-0.2 -64.23,1.1 -117.02,2.7 -154.68,7.7 -8.48,1.4 -16.27,3 -20.02,5 -0.79,0 -1.47,0 -1.77,-0.1 -22.09,5 -40.67,9.9 -38.9,10.1 1.83,0.1 8.53,9.9 38.9,21.2 -0.25,0 -0.94,0 -1.73,-0.1 3.36,2.6 10.85,5.5 19.18,8.3 37.31,12.2 91.59,20.4 156.02,26.2 6.06,0.4 12.17,0.8 22.18,1.4 67.43,4.3 144.97,9.2 226.21,19.1 79.66,9.3 168,29.2 232.72,64.3 61.57,38.2 100.61,110.9 115.44,183 14.69,73 8.83,145.1 -8.37,201.4 -2.76,11 -5.43,17.3 -8.24,23.4 -21.34,51.8 -46.78,92.9 -73.3,114.6 -10.64,13.1 -21.74,20.1 -28.54,28.9 -34.16,-8 -67.93,-13.9 -100.07,-19 -56.44,-7.4 -111.65,-13.7 -162.77,-14.1 -48.26,-1.3 -93.95,-2.7 -136.1,-3.8 -63.69,-1.5 -115.1,-3.7 -153.5,1.2 -38.01,5.1 -62.01,15.6 -62.01,15.6 0,0 18.73,15.2 55.26,28.5 36.52,12.1 91.44,24.5 156.06,32.9 41.36,3 86.22,6.3 133.64,9.6 50.72,2.4 102.24,10.1 155.67,18.7 104.6,18.2 218.87,47.5 293.1,116.7 73.65,66.9 86.52,182.2 66.55,279.4 -10.15,48.8 -28.93,94.1 -53.53,131.5" />
    </g>
    <g
       transform="matrix(0.03805662,0,0,0.03683751,-41.549076,431.04149)"
       id="g22">
      <path
         id="path24"
         style="fill:#211c1d;fill-opacity:1;fill-rule:nonzero;stroke:none"
         d="m 6388.77,11561 c -3.93,-9.3 -3.83,-20.3 -9.38,-29.4 -5.93,-9 -8.39,-19.5 -14.47,-28.2 -6.23,-8.5 -11.73,-17 -16.39,-24.7 -2.5,-3.9 -4.76,-5.8 -6.87,-7.7 -20.56,-22.7 -39.35,-41.9 -53.98,-54 -13.98,-12.8 -23.16,-18.4 -23.16,-18.4 0,0 9.08,5.6 26.89,12.4 18.55,5.7 43.43,17 72.23,35.4 2.65,1.8 5.5,3.4 9.23,7.3 7.95,6.5 17.17,14.6 26.74,23.8 9.47,9.2 15.65,23.3 22.62,35.9 7.07,12.7 7.46,27.9 10.26,40.9 3.28,13.4 -1.08,25.4 -2.16,35.6 -0.74,6.7 -1.23,11 -1.72,15.1 -8.54,33.3 -20.51,58.3 -29.83,75 -8.69,17 -12.07,27 -12.07,27 0,0 2.84,-10.4 5.1,-29.1 3.09,-18.5 3.04,-45.9 3.34,-76 -0.35,-3.5 -0.69,-7.1 -1.28,-12.8 -2.5,-8.4 -0.74,-18.9 -5.1,-28.1 z m 67.56,493.8 c -17.76,-24.7 -32.09,-44.8 -45.14,-63 -11.04,-15.5 -18.65,-22.9 -18.65,-22.9 0,0 7.66,7.5 23.46,17.9 15.85,10.6 39.01,24.7 64.23,46.6 2.31,2.2 4.66,4.3 8.44,7.8 16.39,14.5 38.57,36.4 49.76,67.4 14.47,29.7 9.22,65.7 0.93,86.8 -1.37,7 -3.24,10.7 -5.2,14.3 -14.23,31.3 -31.21,51.7 -38.42,69 -7.36,17.1 -10.11,27.6 -10.11,27.6 0,0 2.11,-10.1 3.33,-29.5 1.33,-19.1 8.05,-47.1 13.79,-76.7 0.84,-3.5 1.77,-7.1 1.62,-12.7 -1.18,-9.2 0.79,-19.7 -0.59,-30.1 -2.16,-10.4 -3.48,-21 -8.68,-31.9 -8.34,-21.7 -21.79,-44.5 -32.44,-61.9 -2.79,-3.8 -4.56,-6.2 -6.33,-8.7 z m 69.14,1000.3 c 0.1,1.3 0.44,1.9 0.89,1.8 -0.54,0.1 -0.89,-0.6 -0.89,-1.8 z m 41.56,-314.1 c -2.01,-4.5 -3.24,-7.2 -4.46,-9.9 -11.83,-28.8 -21.44,-52.2 -29.64,-72.2 -6.97,-17.5 -12.41,-26.7 -12.41,-26.7 0,0 5.49,9.2 17.42,23.8 11.72,14.8 30.42,34.3 49.6,61 1.77,2.5 3.59,5.1 6.53,9.3 8.93,14.2 21.05,29.7 29.3,50.1 9.91,19.3 15.3,43 18.54,66.8 0.2,24.2 -0.88,48.4 -9.22,69.1 -4.32,21.3 -19.63,42.1 -30.08,52.8 -4.22,4.9 -6.82,7.9 -9.37,10.9 -21.84,24.4 -42.64,41.7 -54.62,56.1 -10.06,10.2 -13.15,19.2 -13.15,22.9 -0.34,-3.9 1.23,-13.4 8.05,-26.2 8.1,-17.3 20.17,-42.2 35.82,-69.8 1.81,-3.3 3.63,-6.6 6.62,-12 7.27,-15.6 13.5,-26.6 15.07,-45.5 5,-17.5 4.17,-36 4.46,-54.5 -3.28,-18.8 -5.44,-37.8 -11.58,-55.8 -4.17,-18.3 -12.16,-35.2 -16.88,-50.2 z m 22.03,965.8 c -7.16,8 -13.93,15.7 -20.21,22.7 -4.52,5 -7.12,8.5 -10.11,11.1 -24.73,22.4 -48.38,36.9 -64.48,46.9 -12.41,6.8 -26.1,14.2 -26.1,14.2 0,0 9.67,-5.5 22.47,-18.7 12.96,-13.6 28.22,-35.7 46.27,-61.1 2.21,-2.9 3.64,-6.3 6.68,-11.3 3.78,-6.9 7.85,-14.3 12.17,-22.2 2.74,-8.5 5.54,-17.6 8.49,-26.9 8.09,-18.1 8.24,-38 10.5,-57.2 -1.47,-9.6 -2.26,-19.2 -2.9,-28.9 -2.89,-9.6 -5.79,-18.9 -8.58,-28.1 -7.91,-18 -15.12,-35.8 -24.05,-50.6 -2.5,-4.1 -4.02,-6.7 -5.54,-9.3 -15.36,-27.2 -27.87,-49.3 -38.33,-67.9 -9.12,-16.6 -15.55,-25.1 -15.55,-25.1 0,0 6.58,8.5 20.02,21.7 13.2,13.5 34.1,30.5 56.43,54.6 2.01,2.4 4.12,4.7 7.46,8.6 12.61,12.5 25.32,30.2 37.63,50.4 4.81,11.2 9.77,22.8 14.77,34.6 2.26,12.9 3.93,26.3 5.15,39.6 -2.01,25.7 -5.34,52.7 -17.07,72.9 -5.01,10.7 -9.86,20.8 -15.12,30 z m 998.85,-671.2 c -13.44,59.4 -37.54,114.3 -70.26,160.6 -16.25,23 -34.35,44.6 -55.06,62.1 -9.32,8.9 -21.25,18.8 -30.13,24 -7.95,5.2 -15.75,10.4 -23.45,15.4 -26.45,14.6 -52.8,23.3 -77.39,27.9 24.1,13.9 47.36,31.5 68.55,54.5 49.32,57.3 75.72,126 86.76,198.1 10.69,72 4.9,148.4 -22.57,220.1 -26.94,71.6 -78.42,136.5 -144.36,179 -65.66,42.7 -142.21,66 -216.94,71.5 -73.9,6.6 -142.79,3.5 -214.58,5.6 -283.17,1.4 -563.99,-18.2 -823.57,-9 -64.43,3.4 -129.54,1 -190.09,8.8 -60.85,7.1 -120.12,17.4 -176.35,32.2 -30.72,8.1 -60.65,17.3 -89.51,27.6 -12.22,31.6 -26.98,73.7 -29.83,126.9 -0.49,8.7 -1.72,10.8 -1.72,25.5 -0.64,19.9 -0.39,40.2 1.87,61.1 4.27,41.8 12.17,85.4 25.42,129.5 25.17,88.5 64.81,179.4 111.14,271.2 96.86,184.3 190.63,409 178.75,646.6 -4.66,116.9 -25.51,230.1 -57.8,339.5 -32.38,108.9 -79.49,213.6 -147.65,303.5 -15.55,23.4 -34.98,43.9 -56.08,62.7 -20.22,20.2 -40.44,38.4 -60.6,53.5 -39.45,32.4 -82,62.5 -125.72,88 -43.37,26.2 -90.04,46.1 -136.7,61 -22.13,4.9 -43.97,9.8 -65.31,14.6 -9.08,1.4 -18.36,0.7 -27.24,1 -35.72,1.4 -68.11,-0.5 -95.53,-10.7 -9.72,-2.6 -18.75,-5.3 -27.19,-8.2 -27.62,-5.3 -63.2,-18 -90.09,-51.8 -5.94,-9.1 -13.74,-18.4 -17.66,-28.7 l -1.67,-3.8 c -1.33,-3.7 -6.77,-15.5 -7.75,-22.6 -4.57,-16.7 -5.99,-32.5 -7.27,-48.4 -1.03,-30.8 1.28,-60.1 4.66,-88.5 15.27,-112.6 37.79,-220.6 42.01,-334 5.69,-112.9 -6.14,-228.5 -36.36,-342.4 -16.2,-56.6 -35.14,-113.3 -60.06,-168.4 -25.8,-55 -56.4,-109.1 -84.67,-164.5 -61.82,-108.6 -131.59,-216 -206.88,-322.7 -37.64,-53.7 -75.51,-107.7 -113.56,-162 -18.99,-27.6 -38.77,-53.6 -57.26,-82.6 -17.47,-30.5 -36.56,-60.6 -52.47,-91.7 -62.82,-125.8 -96.91,-259.4 -142.64,-383 -45.14,-123.7 -105.43,-240 -197.06,-328.1 -185.33,-179.3 -454.63,-253.6 -711.28,-293.6 -260.3,-39.2 -522.4,-43.4 -776.7,-35.4 -254.11,4.2 -499.71,8.2 -732.6,12.1 -116.6,-0.4 -229.61,7.6 -338.98,14.9 -68.68,4.1 -135.01,8.1 -198.65,11.9 -64.1,0.9 -117.6,-0.3 -155.65,-6.2 -37.9,-6.5 -60.41,-18.1 -60.41,-18.1 0,0 20.22,-14.6 56.77,-26.1 36.69,-11.1 89.65,-19.5 153.52,-27.4 63.87,-4.8 130.46,-9.8 199.33,-15 109.82,-8.3 223.33,-17.3 340.43,-17.9 234.07,-5.5 480.9,-11.3 736.24,-17.3 254.56,-9.4 521.13,-6.8 790.52,32.9 134.46,20.2 269.69,50.1 400.88,98.7 130.6,48.6 258.07,118.6 361.63,219.9 105.14,101.1 172.19,233 219.29,362.5 47.64,130 81.05,259.5 138.28,373.7 14.41,28.3 31.37,54.6 46.68,82.1 17.19,27.1 37.6,54.2 56.15,81.1 37.91,54.4 75.64,108.5 113.18,162.2 75.56,107.6 147.01,218 210.66,330.7 29.49,58.1 60.84,114.3 87.88,172.7 26.35,59.1 46.56,120.3 63.74,181.6 32.14,123.3 43.97,249.2 36.95,369.5 -5.45,120.4 -30.37,235.5 -45.54,340.4 -3.43,26 -5.44,51.2 -5,74.4 0.88,11.1 1.76,22 4.27,31.2 0.34,4.8 3.38,9.7 3.82,11.8 l 0.64,2 c 1.23,5.7 4.81,8.9 6.58,13.8 12.46,19.5 37.49,32.9 62.61,42.7 0.39,0 0.73,0 1.08,0 23.6,3.2 49.85,-0.6 78.31,-3.6 7.02,-0.9 14.33,-0.6 21.59,-2.3 17.47,-4.5 35.23,-9.1 53.29,-13.8 38.76,-13.7 78.32,-31.1 116.69,-55.4 75.76,-48.2 158.15,-110.9 214.67,-184.6 115.12,-156.7 173.61,-379.1 184.6,-591 4.47,-96.4 -9.76,-190.9 -35.23,-282.7 -2.16,-0.8 -6.33,-2.2 -12.37,-3.8 -12.66,-3.3 -23.6,-6.1 -37.39,-9.7 -1.42,-0.5 -2.84,-0.9 -5.2,-1.6 -16.44,-1.9 -37.68,-5 -58.34,-10.5 -20.95,-1.6 -41.76,-4.5 -57.71,-8.1 -3.04,-0.6 -4.9,0 -6.77,-0.2 -13.69,-0.3 -27.23,-0.5 -38.37,-0.8 -9.47,-0.1 -14.87,0.5 -14.87,0.5 0,0 5.25,-0.8 14.28,-3.4 11.19,-3.2 24.68,-7 38.42,-10.9 1.92,-0.2 3.93,-1.2 7.17,-1.2 16.58,-1.1 39.25,-0.8 61.72,1.1 22.14,5.3 43.68,12.9 59.38,19 2.21,1.2 3.63,2 5,2.6 12.47,7.6 22.53,13.7 33.91,20.6 5.15,3.2 8.98,5.2 11.09,6.3 -31.06,-111.9 -78.85,-219.4 -130.23,-320.8 -46.52,-95.9 -86.7,-191.9 -112.27,-288.8 -13.3,-48.2 -21.39,-97.1 -25.17,-145.2 -2.06,-24 -1.87,-48.1 -0.54,-71.8 0.69,-17.5 2.5,-20.4 3.68,-31 5.2,-31.7 14.67,-60.1 26.35,-84.2 -8.34,3.8 -16.68,7.6 -24.49,11.9 l -27.72,14.9 -19.73,11.6 c -51.08,30.4 -90.28,59.2 -112.17,84.7 -10.06,12.8 -21.24,22.7 -27.28,30.8 -6.87,8 -12.22,12.9 -12.22,12.9 1.18,1 -15.31,-24.9 -0.44,-66.5 14.48,-40 51.52,-89.9 108.15,-129 l 21.54,-15 30.82,-17.7 c 12.8,-7.5 26.3,-13.3 39.69,-20.1 53.88,-25.6 111.54,-46.3 171.79,-63.1 60.26,-16.9 123.41,-28.6 188.28,-36.9 65.16,-8.8 130.13,-7 197.11,-11 266.93,-11.1 547.9,8.3 826.42,6.7 68.5,-2.1 140.58,0.6 205.89,-5.2 64.57,-4.4 125.47,-24.1 175.71,-56.3 102.76,-63.5 146.77,-192.1 129.3,-308.6 -7.55,-57.7 -30.37,-114.6 -63.69,-153.8 -31.55,-36.8 -85.67,-60.3 -139.65,-75.5 -54.42,-15.6 -110.85,-24.5 -165.75,-30.8 -27.73,-2.5 -55.01,-4.9 -81.7,-7.3 -10.06,-0.9 -19.92,-1.7 -29.59,-2.4 -63.01,-6.6 -116,-12.4 -153.25,-21.6 -37.14,-9.7 -58.34,-23.2 -58.34,-23.2 0,0 21.64,-12.7 59.13,-21.1 37.64,-7.9 91.32,-11.8 156.38,-12.1 10.01,0.3 20.12,0.7 30.52,1 27.83,1.3 56.24,3.5 85.14,6.1 57.9,5.7 118.16,13.9 180.08,30.6 1.87,0.5 3.73,1 5.6,1.5 5.34,-1.2 11.09,-2.4 17.17,-3.3 34.99,-4.7 80.72,-20.4 126.4,-49.9 17.96,-12.9 56.63,-45.8 78.66,-82.2 24.48,-37.2 43.18,-82.3 53.29,-130.9 19.87,-96.8 7.06,-211.6 -66.25,-278.2 -73.89,-68.8 -187.63,-98 -291.76,-116.1 -53.19,-8.6 -104.47,-16.2 -154.96,-18.6 -47.2,-3.3 -91.86,-6.5 -133.02,-9.5 -64.33,-8.4 -119,-20.7 -155.36,-32.9 -36.36,-13.1 -55,-28.3 -55,-28.3 0,0 23.89,-10.5 61.72,-15.5 38.23,-4.9 89.41,-2.7 152.81,-1.3 41.95,1.2 87.44,2.6 135.47,3.9 50.89,0.4 105.85,6.6 162.03,14.1 31.99,5 65.56,10.7 99.56,18.5 6.82,-8.6 18.01,-15.5 28.46,-28.5 26.4,-21.5 51.72,-62.5 72.97,-114 2.79,-6.1 5.44,-12.4 8.19,-23.3 17.13,-56 22.96,-127.9 8.34,-200.4 -14.77,-71.8 -53.63,-144.3 -114.92,-182.3 -64.42,-34.9 -152.36,-54.7 -231.65,-63.9 -80.87,-9.9 -158.05,-14.8 -225.18,-19.1 -9.96,-0.6 -16.04,-1 -22.08,-1.3 -64.13,-5.9 -118.16,-14 -155.3,-26.2 -8.29,-2.7 -15.75,-5.6 -19.09,-8.2 0.79,0.1 1.47,0.1 1.72,0.1 -30.23,-11.2 -36.9,-21 -38.72,-21.1 -1.76,-0.2 16.73,-5.1 38.72,-10 0.29,0 0.98,0 1.76,0 3.73,-1.9 11.49,-3.5 19.93,-4.9 37.49,-5 90.04,-6.6 153.97,-7.8 6.04,0.1 12.17,0.2 22.14,0.3 66.83,0.6 146.17,1.5 232.09,9.1 27.87,2.8 56.28,6.2 85.13,11.2 1.92,-3.4 3.88,-6.8 5.89,-10.4 17.81,-29 33.91,-73.6 39.7,-128.8 l 0.44,-21.3 0.05,-2.7 c -0.05,-2.7 1.23,-10.9 0.3,-16.2 -1.33,-11.9 -0.64,-24 -3.34,-35.9 -4.02,-23.7 -10.65,-47.2 -20.96,-69.3 -20.16,-44.4 -53.33,-82.9 -95.78,-110.6 -21,-14.3 -44.99,-24.2 -69.38,-34.1 -27.97,-8.1 -56.23,-16.2 -84.64,-24.4 -56.83,-16.4 -114.38,-33.1 -172.63,-49.9 -59.67,-11.2 -120.07,-22.4 -181.06,-33.8 -60.7,-13.7 -123.36,-18.8 -186.56,-24.5 -63.2,-4.6 -126.6,-15.5 -191.37,-13.8 -519.2,-22.8 -1065.38,103.3 -1603.27,250.9 -134.97,36.5 -271.66,71.1 -410.35,99.6 -71.05,10.1 -140.42,24.6 -214.56,24.3 l -54.78,1.7 -56.59,-7.8 -56.15,-8.5 -50.04,-12 c -266.43,-64.7 -528.95,-127.9 -785.43,-184.1 -255.65,-58.9 -502.8,-115.7 -737.14,-169.6 -117.06,-28.8 -231.38,-51.2 -341.02,-82.9 -68.6,-19.1 -134.88,-37.6 -198.52,-55.3 -61.33,-20.1 -111.69,-38.8 -145.38,-56.6 -33.41,-18.5 -49.91,-36.5 -49.91,-36.5 0,0 24.83,-6.8 63.51,-5.7 38.64,1.5 91.28,10.7 153.74,23.9 63.05,16.6 128.69,33.8 196.6,51.6 107.92,30.4 223.52,52.1 340.11,79.7 234.48,52.2 481.72,107.4 737.56,164.4 256.16,54.5 520.77,116.9 789.61,181.6 l 50.46,12 46.32,6.3 46.09,6.6 48.96,-1.9 c 65.01,0.7 132.37,-13.5 199.15,-22.8 134.24,-27.8 268.79,-61.6 403.9,-98 537.61,-147.5 1096.45,-277 1630.51,-251.7 66.54,-1.5 132.05,9.8 197.16,14.9 65.12,6.2 129.6,11.8 192.26,26.2 62.95,12.1 125.22,24.1 186.75,35.9 60.01,17.8 119.39,35.4 177.93,52.7 29.24,8.8 58.34,17.4 87.14,26 30.67,12.3 60.85,25.4 88.23,44.2 55.1,36.5 99.31,88.7 125.22,147.6 13.2,29.3 21.69,60.3 26.5,91.3 3.09,15.4 2.55,31.3 3.83,46.8 0.83,6.8 -0.54,17.7 -0.59,21.2 l -0.39,3.5 c -0.99,9.4 -1.58,18.7 -3.1,27.6 -10.89,64 -43.32,111.7 -73.45,139.4 44.31,11 89.35,27.2 134.49,52.2 90,56.4 138.33,154.7 154.91,243.2 16.39,90.2 6.24,176.9 -20.36,245.5 -4.22,13.3 -8.24,21.1 -12.41,28.7 -31.65,64.7 -81.85,106.6 -121.74,120.5 -1.82,0.7 -3.53,1.3 -5.3,1.9 68.25,20.2 136.16,51.5 195.05,105.7 49.8,46.6 83.85,112.7 94.8,177.4 12.26,64.1 9.62,128.2 -3.88,187.7" />
    </g>
    <g
       transform="matrix(0.03258403,0,0,0.03154023,-41.549076,431.04149)"
       id="g26">
      <path
         id="path28"
         style="fill:#e6aa5f;fill-opacity:1;fill-rule:nonzero;stroke:none"
         d="m 8603.35,15933.7 c -40.74,-157.7 -330.68,-173 -661.47,-191.2 -330.74,-18 -380.54,-58.8 -387.36,-173.7 -6.76,-114.8 260.53,-166 681.88,-155.8 421.34,10.3 335.72,57.2 398.64,-105.4 62.99,-162.5 -31.69,-339.8 -267.23,-348.8 -235.6,-9 -543.7,22.6 -673.85,-105.9 -22.41,-31.2 -44.25,-54 -57.95,-71.3 -7.33,-9 -12.37,-15.9 -15.64,-20.7 -50.84,-86.3 -38.63,-153.3 -4.7,-173.6 45.33,-27.2 602.62,-13.6 806.53,-45.3 203.85,-31.7 153.99,-172.2 95.07,-285.6 -58.97,-113.3 -339.79,-122.2 -579.92,-117.7 -159.55,3.1 -252.85,-0.2 -312.34,-16.5 -13.87,-24.9 -31.58,-45.4 -46.53,-58.6 -4.42,-4.1 -7.17,-6.6 -9.86,-9.1 -29.46,-25.6 -56.51,-42.1 -75.02,-54.4 -5.05,-3.4 -7.62,-5.6 -11.29,-8.3 -20.46,-31.2 -39.15,-62.7 -53.53,-88.1 -30.55,-53.8 166.54,-75.3 513.1,-145.4 346.61,-70.2 285.46,-79.4 156.34,-140.5 -105.28,-50 -429.65,-72.6 -587.26,-134 -1.94,-12.4 -3.72,-25.3 -10.08,-36.6 -8.14,-14.8 -15.36,-31.3 -26.42,-42.1 -11.18,-10.6 -21.95,-20.1 -31.24,-27.7 -4.35,-4.6 -7.68,-6.5 -10.77,-8.5 -33.64,-21.5 -62.7,-34.7 -84.36,-41.4 -20.81,-7.9 -31.41,-14.4 -31.41,-14.4 0,0 10.72,6.5 27.05,21.4 17.08,14.1 39.03,36.6 63.04,63.1 2.47,2.3 5.1,4.5 8.03,9 5.44,9 11.86,18.9 19.14,28.9 -76.4,-101 -237.61,-253.6 -878.4,-122.4 -640.78,131.2 -1113.83,306.4 -1469.99,445.2 -173.08,67.4 -307.83,96 -449.85,70.1 -271.84,-49.7 -186.88,1.9 -1219.87,-224.3 -315.1,-68.9 -1343.66,-267.3 -1941.49,-404.8 30.42,-46.1 63.44,-89.7 99.71,-128.9 38.98,-48.3 84.42,-89.1 124.29,-131.9 6.95,-6.7 13.32,-12.8 20.17,-19.4 9.68,7.9 23.96,18.3 43.06,28.8 39.35,20.9 98.17,42.7 169.8,66.2 74.32,20.7 151.74,42.2 231.86,64.5 128.05,37.1 261.58,63.2 398.29,96.8 273.7,63 562.36,129.4 860.95,198.2 299.56,65.6 606.17,139.3 917.35,215 l 58.45,14 65.57,10 66.1,9 63.98,-2 c 86.59,0.4 167.61,-16.6 250.59,-28.4 161.99,-33.2 321.64,-73.6 479.27,-116.2 628.23,-172.5 1266.15,-319.7 1872.55,-293.1 75.65,-2 149.69,10.7 223.51,16.1 73.82,6.6 147,12.6 217.89,28.6 71.24,13.3 141.79,26.4 211.48,39.5 68.02,19.7 135.25,39.1 201.62,58.2 33.18,9.6 66.19,19.1 98.86,28.6 28.48,11.6 56.5,23.1 81.03,39.8 49.57,32.3 88.32,77.4 111.87,129.2 12.04,25.8 19.77,53.3 24.47,81 3.16,13.8 2.35,27.9 3.9,41.8 1.09,6.2 -0.4,15.8 -0.34,18.9 l -0.06,3.2 -0.52,24.9 c -6.76,64.5 -25.56,116.6 -46.36,150.4 -2.58,4.6 -4.82,8.6 -7.22,12.8 -33.47,-5.8 -66.71,-10.5 -99.09,-13.7 -100.35,-8.9 -193.02,-10 -271.08,-10.6 -11.63,-0.2 -18.8,-0.2 -25.85,-0.3 -74.67,1.3 -136.05,3.2 -179.84,9 -9.85,1.6 -18.91,3.5 -23.26,5.8 -0.92,0 -1.72,0 -2.07,-0.1 -25.67,5.8 -47.28,11.5 -45.21,11.8 2.12,0 9.91,11.5 45.21,24.6 -0.28,0 -1.08,-0.1 -2,-0.1 3.9,3 12.61,6.3 22.29,9.6 43.38,14.2 106.48,23.7 181.39,30.5 7.05,0.4 14.16,0.9 25.79,1.6 78.4,5 168.55,10.7 263,22.2 92.61,10.8 195.31,33.9 270.56,74.7 71.58,44.4 116.97,129 134.22,212.9 17.07,84.7 10.26,168.6 -9.74,234 -3.22,12.9 -6.31,20.2 -9.58,27.2 -24.81,60.3 -54.38,108.1 -85.22,133.3 -12.37,15.3 -25.27,23.4 -33.18,33.6 -39.72,-9.3 -78.97,-16.2 -116.34,-22 -65.62,-8.7 -129.81,-16 -189.24,-16.4 -56.1,-1.6 -109.23,-3.2 -158.23,-4.6 -74.05,-1.6 -133.82,-4.3 -178.47,1.5 -44.18,5.9 -72.09,18.1 -72.09,18.1 0,0 21.78,17.8 64.24,33.1 42.47,14.2 106.31,28.6 181.45,38.4 48.08,3.5 100.23,7.2 155.37,11.1 58.97,2.8 118.86,11.7 180.98,21.7 121.61,21.1 254.46,55.2 340.77,135.6 85.62,77.8 100.58,211.9 77.37,324.9 -11.81,56.8 -33.64,109.4 -62.24,152.9 -25.73,42.6 -70.9,80.9 -91.87,96 -53.36,34.4 -106.77,52.8 -147.63,58.3 -7.17,1.2 -13.47,2.7 -19.83,4.2 -2.24,-0.7 -4.53,-1.5 -6.76,-2.1 -72.33,-19.4 -142.71,-29.1 -210.33,-35.8 -33.76,-3 -66.94,-5.5 -99.44,-7.1 -12.15,-0.3 -23.95,-0.7 -35.64,-1.1 -76,0.4 -138.69,4.9 -182.65,14.1 -43.78,9.8 -69.06,24.7 -69.06,24.7 0,0 24.76,15.7 68.14,27.1 43.5,10.8 105.4,17.5 178.98,25.1 11.29,1 22.81,1.9 34.56,2.8 31.18,2.9 63.04,5.7 95.42,8.6 64.13,7.3 130.04,17.8 193.6,36 63.04,17.7 126.25,45.1 163.1,88.2 38.91,45.7 65.56,112.2 74.39,179.6 20.4,136 -31,286.3 -151.01,360.4 -58.69,37.6 -129.81,60.6 -205.23,65.8 270.68,-76.9 359.05,-208.6 318.24,-366.3" />
    </g>
    <g
       transform="matrix(0.03358906,0,0,0.03251306,-41.549076,431.04149)"
       id="g30">
      <path
         id="path32"
         style="fill:#e6aa5f;fill-opacity:1;fill-rule:nonzero;stroke:none"
         d="m 6002.43,16300 c -2.23,-31.1 3.44,-59.6 12.17,-86.9 2.39,-2.4 5.62,-5.8 9.23,-10 6.84,-9.2 19.52,-20.4 30.91,-34.9 24.8,-28.9 69.22,-61.6 127.09,-96 l 22.35,-13.1 31.41,-16.9 c 9.01,-5.1 18.85,-9.3 28.47,-13.7 -13.4,27.5 -24.68,59.2 -30.58,95.6 -1.33,12 -3.39,15.3 -4.17,35.1 -1.5,26.9 -1.72,54.1 0.61,81.4 1.28,16.2 3.9,32.5 6.06,48.8 -0.27,-1.1 -0.83,-1.8 -1.11,-3 -57.26,-226.5 -112.8,-135.8 -232.44,13.6" />
    </g>
    <g
       transform="matrix(0.03776867,0,0,0.03655878,-41.549076,431.04149)"
       id="g34">
      <path
         id="path36"
         style="fill:#e6aa5f;fill-opacity:1;fill-rule:nonzero;stroke:none"
         d="m 4561.23,14329.1 c 15.66,208.2 351.78,597 523.74,875.6 171.92,278.5 156.34,683 62.55,925.3 -29.42,76 -40,129.6 -41.63,170 -1.88,-3.4 -4.2,-6.4 -5.19,-10.9 l -0.65,-2 c -0.44,-2.1 -3.5,-7.1 -3.85,-11.9 -2.52,-9.3 -3.41,-20.3 -4.3,-31.5 -0.45,-23.3 1.58,-48.7 5.04,-74.9 15.28,-105.7 40.4,-221.7 45.88,-343 7.07,-121.3 -4.84,-248.1 -37.23,-372.4 -17.3,-61.7 -37.67,-123.4 -64.22,-182.9 -27.25,-58.8 -58.84,-115.5 -88.56,-174 -64.12,-113.6 -136.12,-224.9 -212.26,-333.2 -37.82,-54.2 -75.85,-108.7 -114.05,-163.4 -18.69,-27.2 -39.25,-54.5 -56.57,-81.8 -15.43,-27.7 -32.52,-54.2 -47.03,-82.7 -57.68,-115.1 -91.34,-245.6 -139.35,-376.6 -47.45,-130.4 -115.01,-263.4 -220.96,-365.3 -104.35,-102 -232.78,-172.5 -364.38,-221.5 -132.19,-49 -268.46,-79.1 -403.94,-99.5 -107.05,-15.7 -213.41,-24.5 -318.99,-30.2 35.59,-3.7 72.19,-6.8 112.04,-7.5 1493.41,-27.5 1358.25,786.1 1373.91,994.3" />
    </g>
    <g
       transform="matrix(0.03751881,0,0,0.03631693,-41.549076,431.04149)"
       id="g38">
      <path
         id="path40"
         style="fill:#fcefde;fill-opacity:1;fill-rule:nonzero;stroke:none"
         d="m 5793.63,15468.2 c 106.22,300.9 -106.26,625.6 -263.84,749.5 -85.71,82.3 86.75,-413.1 84.81,-625.6 -1.94,-212.5 72.77,-425 179.03,-123.9" />
    </g>
    <g
       transform="matrix(0.03501351,0,0,0.03389188,-41.549076,431.04149)"
       id="g42">
      <path
         id="path44"
         style="fill:#fcefde;fill-opacity:1;fill-rule:nonzero;stroke:none"
         d="m 5939.38,15929.8 c 50.61,208.8 66.19,370.2 41.12,335.2 -123.36,-158.1 -167.63,-388.9 -158.14,-502.8 9.5,-113.8 66.41,-41.1 117.02,167.6" />
    </g>
    <g
       transform="matrix(0.03235919,0,0,0.03132259,-41.549076,431.04149)"
       id="g46">
      <path
         id="path48"
         style="fill:#fcefde;fill-opacity:1;fill-rule:nonzero;stroke:none"
         d="m 7520.78,16171.3 c -61.17,-86.7 -39.19,-415.2 86.21,-301.1 125.46,114.1 4.62,429.8 -86.21,301.1" />
    </g>
    <g
       transform="matrix(0.03054857,0,0,0.02956997,-41.549076,431.04149)"
       id="g50">
      <path
         id="path52"
         style="fill:#fcefde;fill-opacity:1;fill-rule:nonzero;stroke:none"
         d="m 8099.02,15912 c 101.47,154.7 -0.86,388 -84.11,294.8 -64.74,-72.5 -17.36,-449.4 84.11,-294.8" />
    </g>
    <g
       transform="matrix(0.02866586,0,0,0.02774757,-41.549076,431.04149)"
       id="g54">
      <path
         id="path56"
         style="fill:#fcefde;fill-opacity:1;fill-rule:nonzero;stroke:none"
         d="m 8541.32,16297.9 c -135.96,-5.1 -209.11,-406.9 -112.25,-334.8 96.88,72.2 166.64,336.9 112.25,334.8" />
    </g>
    <g
       transform="matrix(0.02735364,0,0,0.02647739,-41.549076,431.04149)"
       id="g58">
      <path
         id="path60"
         style="fill:#fcefde;fill-opacity:1;fill-rule:nonzero;stroke:none"
         d="m 8791.32,16287.8 c -70.18,12.2 -372.41,-368.4 -151.08,-324.2 221.26,44.2 200.98,315.6 151.08,324.2" />
    </g>
    <g
       transform="matrix(0.03387888,0,0,0.0327936,-41.549076,431.04149)"
       id="g62">
      <path
         id="path64"
         style="fill:#fcefde;fill-opacity:1;fill-rule:nonzero;stroke:none"
         d="m 5984.7,15577.8 c 326.8,-124.2 736.95,-54.5 1250.01,-57.8 513.11,-3.3 923.26,74.1 586.64,97 0,0 -924.86,-68.7 -1313.73,9.8 -388.93,78.4 -614.42,231.1 -627.48,452.1 -13.07,221.1 -222.25,-377 104.56,-501.1" />
    </g>
    <g
       transform="matrix(0.03074744,0,0,0.02976247,-41.549076,431.04149)"
       id="g66">
      <path
         id="path68"
         style="fill:#fcefde;fill-opacity:1;fill-rule:nonzero;stroke:none"
         d="m 8272.26,16192 c 104.4,-25.3 756.19,54 648.14,72 -149.16,24.9 -486.11,-21.6 -669.76,7.2 -183.66,28.8 -82.84,-54 21.62,-79.2" />
    </g>
    <g
       transform="matrix(0.02905614,0,0,0.02812535,-41.549076,431.04149)"
       id="g70">
      <path
         id="path72"
         style="fill:#fcefde;fill-opacity:1;fill-rule:nonzero;stroke:none"
         d="m 9279.62,16246.7 c 0,0 -468.71,15.2 -624.95,34.2 -156.24,19.1 -38.11,-41.9 64.78,-57.1 102.9,-15.3 632.54,-7.7 560.17,22.9" />
    </g>
    <g
       transform="matrix(0.03091719,0,0,0.02992679,-41.549076,431.04149)"
       id="g74">
      <path
         id="path76"
         style="fill:#fcefde;fill-opacity:1;fill-rule:nonzero;stroke:none"
         d="m 1852.4,16049.3 c 788.8,-92.7 1196.21,-126.3 2442.33,-132.5 653.16,-3.2 873.79,282.9 931.09,333.1 57.3,50.1 -157.56,-43 -444.06,-86 -286.49,-42.9 -730.55,-50.1 -1339.34,-42.9 -608.79,7.2 -1876.5,8.4 -1590.02,-71.7" />
    </g>
  </g>
</svg>
